<?xml version="1.0" encoding="utf-8"?>
<!-- Generator: Adobe Illustrator 27.2.0, SVG Export Plug-In . SVG Version: 6.00 Build 0)  -->
<svg version="1.1" id="Layer_1" xmlns="http://www.w3.org/2000/svg" xmlns:xlink="http://www.w3.org/1999/xlink" x="0px" y="0px"
	 viewBox="0 0 491.2 709.2" style="enable-background:new 0 0 491.2 709.2;" xml:space="preserve">
<style type="text/css">
	.st0{fill:none;stroke:#231F20;stroke-width:2;stroke-miterlimit:10;}
	.st1{fill:none;stroke:#231F20;stroke-width:2;stroke-linecap:square;stroke-miterlimit:10;}
	.st2{fill:none;stroke:#231F20;stroke-width:2;stroke-linecap:round;stroke-linejoin:round;stroke-miterlimit:10;}
	.st3{fill:none;stroke:#231F20;stroke-width:2;stroke-linecap:square;stroke-linejoin:round;stroke-miterlimit:10;}
	.st4{fill:none;stroke:#231F20;stroke-linecap:round;stroke-linejoin:round;stroke-miterlimit:10;}
	.st5{fill:none;stroke:#231F20;stroke-linecap:square;stroke-linejoin:round;stroke-miterlimit:10;}
	.st6{fill:none;stroke:#231F20;stroke-miterlimit:10;}
</style>
<path d="M-177.8,138.6V37.2h20.1V14.9h-23.1v19.3h-101.1v33.2h-318V34.6h-99.6V14.9h-23.8v22.7h20.8v101.1h34.3v73.1
	c1,0,2,0.1,3,0.1v-76.2h-34.3V37.6h96.6v32.8h324V37.2h98.1v98.4h-35.8v503.8h35.8v96.2h-98.1v-31.3h-324v31.3h-97.3V639h35.1V236.2
	c-1-0.7-2-1.4-3-2.1v402h-35.1v99.6h-20.1v24.9h23.1v-21.9h100.3v-31.3h318v31.3h101.1v21.2h23.1v-24.2h-20.1v-99.2h-35.8V138.6
	H-177.8z M-177.8,17.9h17.1v16.3h-17.1V17.9z M-702.4,34.6h-17.8V17.9h17.8V34.6z M-703.2,757.5h-17.1v-18.9h17.1V757.5z
	 M-177.8,738.6h17.1v18.2h-17.1V738.6z"/>
<path d="M-687.1,49.1v161.1c2.1,0.3,4.3,0.5,6.4,0.7V55.5h480.6v663.1h-480.6V288.3c-1.2-0.3-2.3-1-3.1-2.1
	c-1.2-1.7-2.3-3.4-3.3-5.2v444h493.4V49.1H-687.1z"/>
<path d="M-712.4,24.3v187.4c0.3-0.1,0.7-0.1,1-0.1V25.3h542v723.5h-542l0-169.1l0-12.3c-0.3-0.1-0.7-0.2-1-0.4v182.8h544V24.3
	H-712.4z"/>
<path d="M-656.6,78.3v133.6c0.5,0,1.1,0,1.6,0c0.4-1.2,1.3-2.2,2.4-2.7V82.3h422v609.5h-422V247.6c-0.1-0.1-0.3-0.2-0.4-0.4
	c-1.1-1.4-2.4-2.6-3.6-3.9v452.4h430V78.3H-656.6z"/>
<polyline class="st0" points="-587.8,812.3 -587.8,812.3 -587.8,812.3 "/>
<g>
	<polyline class="st1" points="121.1,49.1 117.1,49.1 117.1,111.1 54.7,111.1 	"/>
	<path class="st0" d="M54.7,115.4"/>
	<polyline class="st2" points="178.8,91.9 97.6,91.9 97.6,174.2 	"/>
	<rect x="60.2" y="54.5" class="st0" width="37.6" height="37.6"/>
	<path class="st3" d="M54.7,165.6c0,27.7,0,50.1,0,50.1S54.7,193.3,54.7,165.6s0-54.5,0-54.5S54.7,137.9,54.7,165.6z"/>
	<path class="st2" d="M217.5,49.1c0,0-21.6,0-48.2,0c-30.6,0-34.6,0-52.2,0c0,0,25.6,0,52.2,0S217.5,49.1,217.5,49.1z"/>
	<path class="st0" d="M101.6,96"/>
	<path class="st4" d="M78,127c0,30.2,0,66.6,0,66.6S78,157.2,78,127s0-55.5,0-55.5S78,96.8,78,127z"/>
	<path class="st5" d="M78,71.5h111.9H78z"/>
	<rect x="46.1" y="40.7" class="st6" width="13.1" height="13.1"/>
</g>
<g>
	<polyline class="st1" points="342.1,542.6 346.1,542.6 346.1,480.6 408.4,480.6 	"/>
	<path class="st0" d="M408.4,476.2"/>
	<polyline class="st2" points="284.3,499.7 365.5,499.7 365.5,417.5 	"/>
	
		<rect x="365.4" y="499.5" transform="matrix(-1 -1.224647e-16 1.224647e-16 -1 768.3405 1036.6869)" class="st0" width="37.6" height="37.6"/>
	<path class="st3" d="M408.4,426.1c0-27.7,0-50.1,0-50.1S408.4,398.4,408.4,426.1c0,27.7,0,54.5,0,54.5S408.4,453.8,408.4,426.1z"/>
	<path class="st2" d="M245.6,542.6c0,0,21.6,0,48.2,0c30.6,0,34.6,0,52.2,0c0,0-25.6,0-52.2,0C267.2,542.6,245.6,542.6,245.6,542.6z
		"/>
	<path class="st0" d="M361.5,495.7"/>
	<path class="st4" d="M385.2,464.7c0-30.2,0-66.6,0-66.6S385.2,434.5,385.2,464.7s0,55.5,0,55.5S385.2,494.9,385.2,464.7z"/>
	<path class="st5" d="M385.2,520.1H273.3H385.2z"/>
	
		<rect x="403.9" y="537.8" transform="matrix(-1 -1.224647e-16 1.224647e-16 -1 820.91 1088.7885)" class="st6" width="13.1" height="13.1"/>
</g>
</svg>
