<svg width="34" height="57" viewBox="0 0 34 57" fill="none" xmlns="http://www.w3.org/2000/svg">
<g filter="url(#filter0_d_252_772)">
<path d="M6.24743 44.8404C6.04377 44.8408 5.84781 44.7022 5.70016 44.4531C5.5525 44.2041 5.46447 43.8637 5.45428 43.5026V21.6328C5.46447 21.2716 5.5525 20.9312 5.70016 20.6822C5.84781 20.4331 6.04377 20.2945 6.24743 20.2949H23.7917C23.9885 20.312 24.1746 20.4584 24.3138 20.7057C24.4531 20.953 24.5356 21.2835 24.5452 21.6328V43.5026C24.5356 43.8519 24.4531 44.1823 24.3138 44.4296C24.1746 44.6769 23.9885 44.8233 23.7917 44.8404H6.24743Z" fill="white" stroke="white" stroke-width="0.75"/>
<rect x="11.5" y="13.9121" width="7" height="8" fill="white" stroke="white"/>
<rect x="11.5" y="2.66602" width="7" height="8" fill="white" stroke="white"/>
<path d="M3.5602 47.5131L3.57246 47.5137L26.384 47.5076L26.3846 47.0076L26.3848 47.5076H26.3841C26.6705 47.5079 26.946 47.3981 27.1536 47.2008C27.3612 47.0036 27.4851 46.734 27.4994 46.4479L27.5 46.4355V46.4229V26.786C27.5 23.5405 26.3161 21.3096 24.7771 19.8563C23.259 18.4227 21.4195 17.7675 20.0969 17.6084C19.7555 17.5431 19.4456 17.3654 19.2169 17.1033C18.9873 16.8401 18.8529 16.5075 18.8354 16.1589V14.4414V13.9414H18.3354H17.1661H16.6661V14.4414V16.1829V16.1929L16.6665 16.2028C16.7009 17.0655 17.032 17.8899 17.6038 18.5368C18.1756 19.1836 18.9532 19.6133 19.8051 19.7532L19.8146 19.7548L19.8241 19.756C19.9137 19.7672 21.304 19.9512 22.6609 20.9165C23.9907 21.8625 25.3308 23.5861 25.3308 26.7799V45.3568H4.66923V26.7799C4.66923 23.5859 6.00789 21.8626 7.34101 20.916C8.70134 19.9501 10.1004 19.7642 10.2141 19.7497L10.2266 19.7481L10.239 19.7458C11.0816 19.5947 11.8475 19.1607 12.4101 18.5155C12.9727 17.8704 13.2984 17.0525 13.3334 16.1972L13.3338 16.187V16.1768V14.4475V13.9475H12.8338H11.6646H11.1646V14.4475V16.1476C11.1481 16.5045 11.0101 16.8453 10.7733 17.1132C10.5368 17.3809 10.2161 17.5597 9.86429 17.6202C8.56991 17.7757 6.73934 18.4334 5.22391 19.8683C3.68909 21.3216 2.5 23.5519 2.5 26.7922V46.4291V46.4413L2.5006 46.4535C2.51411 46.7301 2.63007 46.9919 2.82595 47.1877C3.02179 47.3836 3.28351 47.4996 3.5602 47.5131Z" fill="black" stroke="white"/>
<path d="M11.1769 10.9561V10.4561V2.20375V2.19154L11.1775 2.17935C11.191 1.90271 11.307 1.64097 11.5028 1.4451C11.6987 1.24924 11.9604 1.13326 12.2371 1.11974L12.2493 1.11914H12.2615H17.7384H17.7506L17.7628 1.11974C18.0395 1.13326 18.3012 1.24924 18.4971 1.4451M11.1769 10.9561L18.4971 1.4451M11.1769 10.9561H11.6769H18.323H18.823V10.4561V2.20375V2.19154L18.8224 2.17935C18.8089 1.90267 18.6929 1.64094 18.4971 1.4451M11.1769 10.9561L18.1435 1.79865L18.4971 1.4451M16.6538 3.29453V9.10683H13.3461V3.29453H16.6538Z" fill="black" stroke="white"/>
<path d="M8.58164 41.166C8.43229 41.1662 8.28859 41.1097 8.18031 41.0082C8.07203 40.9068 8.00747 40.7681 8 40.621V31.7111C8.00747 31.5639 8.07203 31.4253 8.18031 31.3238C8.28859 31.2223 8.43229 31.1658 8.58164 31.166H21.4475C21.5917 31.173 21.7282 31.2326 21.8303 31.3334C21.9325 31.4341 21.9929 31.5688 22 31.7111V40.621C21.9929 40.7633 21.9325 40.8979 21.8303 40.9987C21.7282 41.0994 21.5917 41.1591 21.4475 41.166H8.58164ZM9.13418 40.0759H20.8949V32.2561H9.13418V40.0759Z" fill="black"/>
</g>
<defs>
<filter id="filter0_d_252_772" x="0" y="0.619141" width="34" height="55.3945" filterUnits="userSpaceOnUse" color-interpolation-filters="sRGB">
<feFlood flood-opacity="0" result="BackgroundImageFix"/>
<feColorMatrix in="SourceAlpha" type="matrix" values="0 0 0 0 0 0 0 0 0 0 0 0 0 0 0 0 0 0 127 0" result="hardAlpha"/>
<feOffset dx="2" dy="4"/>
<feGaussianBlur stdDeviation="2"/>
<feComposite in2="hardAlpha" operator="out"/>
<feColorMatrix type="matrix" values="0 0 0 0 0 0 0 0 0 0 0 0 0 0 0 0 0 0 0.35 0"/>
<feBlend mode="normal" in2="BackgroundImageFix" result="effect1_dropShadow_252_772"/>
<feBlend mode="normal" in="SourceGraphic" in2="effect1_dropShadow_252_772" result="shape"/>
</filter>
</defs>
</svg>
