<svg width="44" height="52" viewBox="0 0 44 52" fill="none" xmlns="http://www.w3.org/2000/svg">
<g filter="url(#filter0_d_252_854)">
<path d="M7.57118 15.8925C7.1002 16.3616 6.83545 16.999 6.83545 17.6637V41.0005C6.83545 42.3812 7.95474 43.5005 9.33545 43.5005H31.3484C32.7291 43.5005 33.8484 42.3812 33.8484 41.0005V17.681C33.8484 17.0035 33.5734 16.355 33.0864 15.884L21.9093 5.07369C20.9299 4.12644 19.3723 4.13789 18.407 5.09944L7.57118 15.8925Z" fill="white" stroke="white"/>
<path d="M7.83545 17.6637C7.83545 17.2649 7.9943 16.8825 8.27689 16.601L19.1127 5.80794C19.6919 5.23101 20.6264 5.22414 21.2141 5.79249L32.3912 16.6028C32.6834 16.8854 32.8484 17.2745 32.8484 17.681V41.0005C32.8484 41.829 32.1768 42.5005 31.3484 42.5005H9.33545C8.50702 42.5005 7.83545 41.829 7.83545 41.0005V17.6637Z" fill="white" stroke="black"/>
<path d="M20.5494 40.528C20.5008 40.6577 20.3172 40.6577 20.2686 40.528L15.1028 26.7619C15.066 26.6638 15.1385 26.5592 15.2432 26.5592L25.5748 26.5592C25.6795 26.5592 25.752 26.6638 25.7152 26.7619L20.5494 40.528Z" fill="white" stroke="black" stroke-width="0.7"/>
<path d="M20.5534 36.072C20.5124 36.2178 20.3057 36.2178 20.2646 36.072L16.8489 23.9352C16.8219 23.8395 16.8938 23.7446 16.9933 23.7446L23.8248 23.7446C23.9242 23.7446 23.9961 23.8395 23.9692 23.9352L20.5534 36.072Z" fill="white" stroke="black" stroke-width="0.7"/>
<path d="M20.5573 31.2637C20.5488 31.3187 20.5271 31.3448 20.5081 31.3597C20.4852 31.3778 20.4503 31.391 20.409 31.391C20.3676 31.391 20.3328 31.3778 20.3098 31.3597C20.2909 31.3448 20.2691 31.3187 20.2607 31.2637L18.5786 20.2631C18.5647 20.1723 18.635 20.0904 18.7269 20.0904H22.0911C22.183 20.0904 22.2533 20.1723 22.2394 20.2631L20.5573 31.2637Z" fill="white" stroke="black" stroke-width="0.7"/>
<path d="M15.5296 30.8212C15.5296 28.1264 17.7142 25.9418 20.409 25.9418C23.1038 25.9418 25.2884 28.1264 25.2884 30.8212V42.041H15.5296V30.8212Z" fill="white" stroke="black" stroke-width="0.7"/>
<path d="M3.42297 24.3935L3.76892 24.7545C3.29203 25.2115 2.5 24.8735 2.5 24.213V18.7863C2.5 18.5885 2.57813 18.3987 2.71737 18.2583L19.9899 0.835031M3.42297 24.3935L19.9899 0.835031M3.42297 24.3935L3.76892 24.7545L20.5151 8.70692L35.808 24.6943C36.2755 25.1829 37.1 24.8521 37.1 24.1758V18.78C37.1 18.5934 37.0305 18.4136 36.9051 18.2756L36.535 18.6119L36.905 18.2756L21.0776 0.858655C20.7887 0.540751 20.2923 0.529966 19.9899 0.835031M3.42297 24.3935L20.345 1.18705L19.9899 0.835031M20.6957 8.53379C20.6956 8.53392 20.6954 8.53405 20.6953 8.53418L20.6957 8.53379L20.5227 8.35329L20.6957 8.53379Z" fill="black" stroke="white"/>
<path d="M3.5 18.8892L20.5147 1.72611L36.1 18.8766V23.5528L21.0647 7.83486C20.7782 7.53535 20.3031 7.52501 20.0038 7.81179L3.5 23.6272V18.8892ZM3.42754 18.9623L3.42774 18.9621C3.42767 18.9622 3.42761 18.9622 3.42754 18.9623L3.25 18.7863L3.42754 18.9623ZM20.7001 1.53906C20.7 1.53912 20.7 1.53918 20.6999 1.53925L20.7001 1.53906L20.5226 1.36305L20.7001 1.53906Z" fill="white" stroke="black"/>
</g>
<defs>
<filter id="filter0_d_252_854" x="0" y="0.113281" width="43.6" height="51.8867" filterUnits="userSpaceOnUse" color-interpolation-filters="sRGB">
<feFlood flood-opacity="0" result="BackgroundImageFix"/>
<feColorMatrix in="SourceAlpha" type="matrix" values="0 0 0 0 0 0 0 0 0 0 0 0 0 0 0 0 0 0 127 0" result="hardAlpha"/>
<feOffset dx="2" dy="4"/>
<feGaussianBlur stdDeviation="2"/>
<feComposite in2="hardAlpha" operator="out"/>
<feColorMatrix type="matrix" values="0 0 0 0 0 0 0 0 0 0 0 0 0 0 0 0 0 0 0.35 0"/>
<feBlend mode="normal" in2="BackgroundImageFix" result="effect1_dropShadow_252_854"/>
<feBlend mode="normal" in="SourceGraphic" in2="effect1_dropShadow_252_854" result="shape"/>
</filter>
</defs>
</svg>
