<svg width="46" height="70" viewBox="0 0 46 70" fill="none" xmlns="http://www.w3.org/2000/svg">
<g filter="url(#filter0_d_252_780)">
<mask id="path-1-outside-1_252_780" maskUnits="userSpaceOnUse" x="7" y="22.5469" width="8" height="9" fill="black">
<rect fill="white" x="7" y="22.5469" width="8" height="9"/>
<path d="M9 22.5469H13V29.5469H9V22.5469Z"/>
</mask>
<path d="M9 22.5469H13V29.5469H9V22.5469Z" fill="white"/>
<path d="M13 29.5469V31.0469H14.5V29.5469H13ZM9 29.5469H7.5V31.0469H9V29.5469ZM11.5 22.5469V29.5469H14.5V22.5469H11.5ZM13 28.0469H9V31.0469H13V28.0469ZM10.5 29.5469V22.5469H7.5V29.5469H10.5Z" fill="white" mask="url(#path-1-outside-1_252_780)"/>
<path d="M9 23.5469H13V30.5469H9V23.5469Z" fill="white"/>
<path d="M13 30.5469V31.0469H13.5V30.5469H13ZM9 30.5469H8.5V31.0469H9V30.5469ZM12.5 23.5469V30.5469H13.5V23.5469H12.5ZM13 30.0469H9V31.0469H13V30.0469ZM9.5 30.5469V23.5469H8.5V30.5469H9.5Z" fill="black"/>
<path d="M28.75 1.54688V0.796875H28C24.6403 0.796875 21.9167 3.52048 21.9167 6.88021V21.5469C21.9167 23.918 23.2731 25.9708 25.25 26.9744V30.1302C25.25 30.7107 25.5798 31.2142 26.0621 31.4635H23.6667C22.7002 31.4635 21.9167 32.247 21.9167 33.2135V52.5469C21.9167 53.5134 22.7002 54.2969 23.6667 54.2969H27C27.9665 54.2969 28.75 53.5134 28.75 52.5469V33.2135C28.75 32.3706 28.1541 31.6669 27.3606 31.5007C27.8847 31.2669 28.25 30.7412 28.25 30.1302V27.6302H28.75V26.8802V1.54688ZM8.25 19.9697H9H10.25V19.9714H11H13H13.75V19.97H14.5C17.1234 19.97 19.25 17.8433 19.25 15.22V10.5279C19.25 7.90452 17.1234 5.77787 14.5 5.77787H13.75V6.52787V6.83432C13.75 6.0319 13.2043 5.33229 12.426 5.13696L11.75 4.96731V4.56289L10.8012 4.8237L9.53616 5.17144C8.77648 5.38027 8.25 6.07099 8.25 6.85885V6.52787V5.77787H7.5C4.92738 5.77787 2.75 7.7335 2.75 10.2553V15.4926C2.75 18.0143 4.92738 19.97 7.5 19.97H8.25V19.9697ZM9 29.4629C8.0335 29.4629 7.25 30.2464 7.25 31.2129V50.5462C7.25 51.5127 8.0335 52.2962 9 52.2962H13C13.9665 52.2962 14.75 51.5127 14.75 50.5462V31.2129C14.75 30.2464 13.9665 29.4629 13 29.4629H9Z" fill="white" stroke="white" stroke-width="1.5"/>
<path d="M22.6667 6.88021C22.6667 3.93469 25.0545 1.54688 28 1.54688V26.8802C27.8314 26.8802 27.6646 26.8724 27.5 26.8571V30.1302C27.5 30.5444 27.1642 30.8802 26.75 30.8802C26.3358 30.8802 26 30.5444 26 30.1302V26.4925C24.0455 25.7013 22.6667 23.7851 22.6667 21.5469V6.88021Z" fill="white"/>
<path d="M9.73495 5.89462C9.30084 6.01395 9 6.40865 9 6.85885V19.2197H11V19.2214H13V18.2199H13.01V7.61137C13.01 7.56356 13.0066 7.51634 13 7.46996V6.83432C13 6.3758 12.6882 5.97602 12.2434 5.8644L11 5.55234V5.54688L9.73495 5.89462Z" fill="white"/>
<path d="M7.5 6.52787C5.29086 6.52787 3.5 8.19669 3.5 10.2553V15.4926C3.5 17.5512 5.29086 19.22 7.5 19.22V6.52787Z" fill="white"/>
<path d="M14.5 6.52787C16.7091 6.52787 18.5 8.31873 18.5 10.5279V15.22C18.5 17.4291 16.7091 19.22 14.5 19.22V6.52787Z" fill="white"/>
<path d="M8 31.2129C8 30.6606 8.44772 30.2129 9 30.2129H13C13.5523 30.2129 14 30.6606 14 31.2129V50.5462C14 51.0985 13.5523 51.5462 13 51.5462H9C8.44772 51.5462 8 51.0985 8 50.5462V31.2129Z" fill="white"/>
<path d="M23.6667 32.2135C23.1144 32.2135 22.6667 32.6613 22.6667 33.2135V52.5469C22.6667 53.0992 23.1144 53.5469 23.6667 53.5469H27C27.5523 53.5469 28 53.0992 28 52.5469V33.2135C28 32.6613 27.5523 32.2135 27 32.2135H23.6667Z" fill="white"/>
<path d="M22.6667 6.88021C22.6667 3.93469 25.0545 1.54688 28 1.54688V26.8802C27.8314 26.8802 27.6646 26.8724 27.5 26.8571V30.1302C27.5 30.5444 27.1642 30.8802 26.75 30.8802C26.3358 30.8802 26 30.5444 26 30.1302V26.4925C24.0455 25.7013 22.6667 23.7851 22.6667 21.5469V6.88021Z" stroke="black"/>
<path d="M9.73495 5.89462C9.30084 6.01395 9 6.40865 9 6.85885V19.2197H11V19.2214H13V18.2199H13.01V7.61137C13.01 7.56356 13.0066 7.51634 13 7.46996V6.83432C13 6.3758 12.6882 5.97602 12.2434 5.8644L11 5.55234V5.54688L9.73495 5.89462Z" stroke="black"/>
<path d="M7.5 6.52787C5.29086 6.52787 3.5 8.19669 3.5 10.2553V15.4926C3.5 17.5512 5.29086 19.22 7.5 19.22V6.52787Z" stroke="black"/>
<path d="M14.5 6.52787C16.7091 6.52787 18.5 8.31873 18.5 10.5279V15.22C18.5 17.4291 16.7091 19.22 14.5 19.22V6.52787Z" stroke="black"/>
<path d="M8 31.2129C8 30.6606 8.44772 30.2129 9 30.2129H13C13.5523 30.2129 14 30.6606 14 31.2129V50.5462C14 51.0985 13.5523 51.5462 13 51.5462H9C8.44772 51.5462 8 51.0985 8 50.5462V31.2129Z" stroke="black"/>
<path d="M23.6667 32.2135C23.1144 32.2135 22.6667 32.6613 22.6667 33.2135V52.5469C22.6667 53.0992 23.1144 53.5469 23.6667 53.5469H27C27.5523 53.5469 28 53.0992 28 52.5469V33.2135C28 32.6613 27.5523 32.2135 27 32.2135H23.6667Z" stroke="black"/>
<path d="M5.58771 34.899C4.87524 35.4984 4.87524 36.5953 5.58771 37.1947L29.2843 57.1303C30.26 57.9511 31.75 57.2575 31.75 55.9824L31.75 16.1113C31.75 14.8363 30.26 14.1427 29.2844 14.9635L5.58771 34.899Z" fill="white" stroke="white" stroke-linecap="round" stroke-linejoin="round"/>
<path d="M6.23147 36.4298C5.99398 36.23 5.99398 35.8644 6.23147 35.6646L29.9281 15.729C30.2533 15.4554 30.75 15.6866 30.75 16.1117L30.75 55.9828C30.75 56.4078 30.2533 56.639 29.9281 56.3654L25.0094 52.2273L21.7281 49.4669L18.4469 46.7064L15.1656 43.946L11.8844 41.1855L6.23147 36.4298Z" fill="white" stroke="black" stroke-linecap="round" stroke-linejoin="round"/>
</g>
<defs>
<filter id="filter0_d_252_780" x="0" y="0.046875" width="46" height="71.5" filterUnits="userSpaceOnUse" color-interpolation-filters="sRGB">
<feFlood flood-opacity="0" result="BackgroundImageFix"/>
<feColorMatrix in="SourceAlpha" type="matrix" values="0 0 0 0 0 0 0 0 0 0 0 0 0 0 0 0 0 0 127 0" result="hardAlpha"/>
<feOffset dx="2" dy="4"/>
<feGaussianBlur stdDeviation="2"/>
<feComposite in2="hardAlpha" operator="out"/>
<feColorMatrix type="matrix" values="0 0 0 0 0 0 0 0 0 0 0 0 0 0 0 0 0 0 0.35 0"/>
<feBlend mode="normal" in2="BackgroundImageFix" result="effect1_dropShadow_252_780"/>
<feBlend mode="normal" in="SourceGraphic" in2="effect1_dropShadow_252_780" result="shape"/>
</filter>
</defs>
</svg>
