<svg width="55" height="71" viewBox="0 0 55 71" fill="none" xmlns="http://www.w3.org/2000/svg">
<g filter="url(#filter0_d_252_788)">
<path d="M8.88506 60.7524L15.2182 24.9578L32.9419 35.6432L8.88506 60.7524Z" fill="white" stroke="white"/>
<mask id="path-2-outside-1_252_788" maskUnits="userSpaceOnUse" x="-10.8731" y="14.1463" width="58.3455" height="49.636" fill="black">
<rect fill="white" x="-10.8731" y="14.1463" width="58.3455" height="49.636"/>
<path fill-rule="evenodd" clip-rule="evenodd" d="M28.2606 22.9841C22.6926 20.4463 16.9946 20.4272 15.5337 22.9413C15.5181 22.9682 15.503 22.9953 15.4884 23.0226L15.3731 22.9575L15.2693 23.422L12.1885 37.209L12.1884 37.2097L11.3912 40.7427L10.9925 42.5095C10.949 42.7022 11.083 42.9035 11.2918 42.959C11.5006 43.0145 11.7052 42.9033 11.7486 42.7105L12.1473 40.9437L12.9447 37.41L12.9448 37.4094L15.5413 25.7896C16.4765 27.9557 19.214 30.3766 22.9702 32.0886C26.7317 33.803 30.5526 34.368 33.0863 33.779L33.2349 33.8629L7.66346 60.8149L8.55179 56.8781L9.75527 51.5446L10.5526 48.011C10.5961 47.8182 10.4621 47.617 10.2533 47.5615C10.0445 47.506 9.83996 47.6172 9.79647 47.81L8.99911 51.3436L7.79564 56.6771L6.80226 61.0795C6.66561 61.6851 7.49748 62.1208 7.9267 61.6684L34.1337 34.0464L34.4394 33.7243L34.0176 33.4861C34.7743 33.1748 35.3531 32.7233 35.6971 32.1314C37.158 29.6172 33.8286 25.5219 28.2606 22.9841Z"/>
</mask>
<path fill-rule="evenodd" clip-rule="evenodd" d="M28.2606 22.9841C22.6926 20.4463 16.9946 20.4272 15.5337 22.9413C15.5181 22.9682 15.503 22.9953 15.4884 23.0226L15.3731 22.9575L15.2693 23.422L12.1885 37.209L12.1884 37.2097L11.3912 40.7427L10.9925 42.5095C10.949 42.7022 11.083 42.9035 11.2918 42.959C11.5006 43.0145 11.7052 42.9033 11.7486 42.7105L12.1473 40.9437L12.9447 37.41L12.9448 37.4094L15.5413 25.7896C16.4765 27.9557 19.214 30.3766 22.9702 32.0886C26.7317 33.803 30.5526 34.368 33.0863 33.779L33.2349 33.8629L7.66346 60.8149L8.55179 56.8781L9.75527 51.5446L10.5526 48.011C10.5961 47.8182 10.4621 47.617 10.2533 47.5615C10.0445 47.506 9.83996 47.6172 9.79647 47.81L8.99911 51.3436L7.79564 56.6771L6.80226 61.0795C6.66561 61.6851 7.49748 62.1208 7.9267 61.6684L34.1337 34.0464L34.4394 33.7243L34.0176 33.4861C34.7743 33.1748 35.3531 32.7233 35.6971 32.1314C37.158 29.6172 33.8286 25.5219 28.2606 22.9841Z" fill="white"/>
<path d="M15.5337 22.9413L14.6111 22.4475L14.6111 22.4476L15.5337 22.9413ZM28.2606 22.9841L28.6726 22.1289L28.2606 22.9841ZM15.4884 23.0226L14.9876 23.8326L15.9525 24.3775L16.4263 23.4889L15.4884 23.0226ZM15.3731 22.9575L15.8739 22.1475L14.6362 21.4486L14.3548 22.7079L15.3731 22.9575ZM15.2693 23.422L14.251 23.1724L14.251 23.1724L15.2693 23.422ZM12.1885 37.209L13.2065 37.4599L13.2067 37.4586L12.1885 37.209ZM12.1884 37.2097L13.2062 37.461L13.2063 37.4606L12.1884 37.2097ZM11.3912 40.7427L10.3733 40.4913L10.3733 40.4913L11.3912 40.7427ZM10.9925 42.5095L9.97466 42.2582L10.9925 42.5095ZM11.7486 42.7105L12.7665 42.9618L12.7665 42.9618L11.7486 42.7105ZM12.1473 40.9437L11.1295 40.6924L12.1473 40.9437ZM12.9447 37.41L11.927 37.1581L11.9268 37.1587L12.9447 37.41ZM12.9448 37.4094L13.9625 37.6614L13.9631 37.659L12.9448 37.4094ZM15.5413 25.7896L16.5033 25.4835L15.2067 22.4805L14.5231 25.54L15.5413 25.7896ZM22.9702 32.0886L22.5582 32.9438L22.9702 32.0886ZM33.0863 33.779L33.5871 32.969L33.1979 32.7492L32.7741 32.8477L33.0863 33.779ZM33.2349 33.8629L34.0349 34.5201L34.8369 33.6747L33.7357 33.0529L33.2349 33.8629ZM7.66346 60.8149L6.64563 60.5636L8.46345 61.4722L7.66346 60.8149ZM8.55179 56.8781L7.53396 56.6268L7.53396 56.6268L8.55179 56.8781ZM9.75527 51.5446L8.73744 51.2933L9.75527 51.5446ZM10.5526 48.011L11.5705 48.2623L11.5705 48.2623L10.5526 48.011ZM10.2533 47.5615L10.4821 46.6407L10.4821 46.6407L10.2533 47.5615ZM9.79647 47.81L10.8143 48.0613L10.8143 48.0613L9.79647 47.81ZM8.99911 51.3436L7.98128 51.0923L8.99911 51.3436ZM7.79564 56.6771L8.81347 56.9284L7.79564 56.6771ZM6.80226 61.0795L5.78443 60.8281L5.78443 60.8281L6.80226 61.0795ZM7.9267 61.6684L7.12671 61.0112L7.12671 61.0112L7.9267 61.6684ZM34.1337 34.0464L33.3337 33.3892L33.3337 33.3892L34.1337 34.0464ZM34.4394 33.7243L35.2394 34.3815L36.0414 33.5362L34.9402 32.9143L34.4394 33.7243ZM34.0176 33.4861L33.5462 32.6056L31.7972 33.325L33.5168 34.2961L34.0176 33.4861ZM35.6971 32.1314L34.7745 31.6376L34.7745 31.6376L35.6971 32.1314ZM16.4563 23.4351C16.9316 22.6171 18.2421 22.0203 20.4183 22.0276C22.5332 22.0347 25.1877 22.6265 27.8486 23.8393L28.6726 22.1289C25.7656 20.8039 22.7871 20.1173 20.2958 20.1089C17.8657 20.1007 15.5967 20.7514 14.6111 22.4475L16.4563 23.4351ZM16.4263 23.4889C16.4359 23.4709 16.4459 23.4529 16.4563 23.435L14.6111 22.4476C14.5902 22.4835 14.57 22.5198 14.5505 22.5564L16.4263 23.4889ZM15.9892 22.2127L15.8739 22.1475L14.8723 23.7675L14.9876 23.8326L15.9892 22.2127ZM14.3548 22.7079L14.251 23.1724L16.2875 23.6716L16.3913 23.2071L14.3548 22.7079ZM14.251 23.1724L11.1703 36.9594L13.2067 37.4586L16.2875 23.6716L14.251 23.1724ZM11.1706 36.9582L11.1704 36.9588L13.2063 37.4606L13.2065 37.4599L11.1706 36.9582ZM11.1705 36.9584L10.3733 40.4913L12.409 40.994L13.2062 37.461L11.1705 36.9584ZM10.3733 40.4913L9.97466 42.2582L12.0103 42.7608L12.409 40.994L10.3733 40.4913ZM9.97466 42.2582C9.8194 42.9463 10.2925 43.6749 11.063 43.8798L11.5206 42.0383C11.8736 42.1321 12.0786 42.4582 12.0103 42.7608L9.97466 42.2582ZM11.063 43.8798C11.8496 44.0889 12.6081 43.6636 12.7665 42.9618L10.7308 42.4592C10.8022 42.143 11.1516 41.9402 11.5206 42.0383L11.063 43.8798ZM12.7665 42.9618L13.1652 41.195L11.1295 40.6924L10.7308 42.4592L12.7665 42.9618ZM13.1652 41.195L13.9625 37.6614L11.9268 37.1587L11.1295 40.6924L13.1652 41.195ZM13.9624 37.662L13.9625 37.6614L11.9271 37.1574L11.927 37.1581L13.9624 37.662ZM13.9631 37.659L16.5595 26.0392L14.5231 25.54L11.9266 37.1598L13.9631 37.659ZM23.3822 31.2334C19.7541 29.5798 17.2947 27.3164 16.5033 25.4835L14.5793 26.0958C15.6583 28.595 18.6738 31.1733 22.5582 32.9438L23.3822 31.2334ZM32.7741 32.8477C30.5575 33.363 27.0043 32.8843 23.3822 31.2334L22.5582 32.9438C26.4591 34.7217 30.5476 35.373 33.3985 34.7102L32.7741 32.8477ZM32.5855 34.5889L32.7341 34.6728L33.7357 33.0529L33.5871 32.969L32.5855 34.5889ZM32.4349 33.2056L6.86348 60.1577L8.46345 61.4722L34.0349 34.5201L32.4349 33.2056ZM8.6813 61.0663L9.56962 57.1294L7.53396 56.6268L6.64563 60.5636L8.6813 61.0663ZM9.56963 57.1294L10.7731 51.796L8.73744 51.2933L7.53396 56.6268L9.56963 57.1294ZM10.7731 51.796L11.5705 48.2623L9.53479 47.7596L8.73744 51.2933L10.7731 51.796ZM11.5705 48.2623C11.7257 47.5742 11.2527 46.8456 10.4821 46.6407L10.0245 48.4822C9.67154 48.3884 9.46651 48.0622 9.53479 47.7596L11.5705 48.2623ZM10.4821 46.6407C9.69548 46.4316 8.93698 46.8569 8.77863 47.5586L10.8143 48.0613C10.7429 48.3775 10.3935 48.5803 10.0245 48.4822L10.4821 46.6407ZM8.77864 47.5586L7.98128 51.0923L10.0169 51.5949L10.8143 48.0613L8.77864 47.5586ZM7.98128 51.0923L6.77781 56.4257L8.81347 56.9284L10.0169 51.5949L7.98128 51.0923ZM6.77781 56.4257L5.78443 60.8281L7.82009 61.3308L8.81347 56.9284L6.77781 56.4257ZM5.78443 60.8281C5.6107 61.5981 6.07222 62.2779 6.68337 62.598C7.29896 62.9205 8.16051 62.9224 8.72668 62.3257L7.12671 61.0112C7.17704 60.9582 7.26642 60.9092 7.37787 60.8983C7.47807 60.8885 7.56195 60.9123 7.62119 60.9434C7.68057 60.9745 7.73951 61.0253 7.78033 61.0994C7.82566 61.1818 7.83427 61.268 7.82009 61.3308L5.78443 60.8281ZM8.72668 62.3257L34.9337 34.7037L33.3337 33.3892L7.12671 61.0112L8.72668 62.3257ZM34.9337 34.7037L35.2394 34.3815L33.6394 33.067L33.3337 33.3892L34.9337 34.7037ZM34.9402 32.9143L34.5184 32.6761L33.5168 34.2961L33.9386 34.5342L34.9402 32.9143ZM34.7745 31.6376C34.551 32.0222 34.1535 32.3558 33.5462 32.6056L34.489 34.3666C35.3952 33.9938 36.1553 33.4244 36.6197 32.6251L34.7745 31.6376ZM27.8486 23.8393C30.5121 25.0532 32.5821 26.6157 33.7978 28.1111C35.043 29.6427 35.2263 30.8601 34.7745 31.6376L36.6197 32.6251C37.6288 30.8885 36.8779 28.8011 35.4316 27.0221C33.9558 25.2068 31.5771 23.4527 28.6726 22.1289L27.8486 23.8393Z" fill="white" mask="url(#path-2-outside-1_252_788)"/>
<path d="M26.9918 40.1281C23.6439 39.7233 20.9013 38.5064 18.4857 35.9297" stroke="white" stroke-width="1.5" stroke-linecap="round"/>
<path d="M24.8285 42.3251C22.3253 41.7967 20.2152 40.8327 18.2559 39.081" stroke="white" stroke-width="1.5" stroke-linecap="round"/>
<path d="M15.7609 36.2195C14.7955 35.0462 14.1293 33.8135 13.7542 32.2661" stroke="white" stroke-width="1.5" stroke-linecap="round"/>
<path d="M16.5404 33.5262C15.575 32.3529 14.9087 31.1201 14.5336 29.5727" stroke="white" stroke-width="1.5" stroke-linecap="round"/>
<mask id="path-8-inside-2_252_788" fill="white">
<path fill-rule="evenodd" clip-rule="evenodd" d="M15.3208 23.4144L15.3871 23.1204L15.4845 22.689L15.6451 22.7668C17.2655 20.4301 22.8251 20.5072 28.2606 22.9847C33.8286 25.5224 37.158 29.6178 35.6971 32.1319C35.6436 32.2241 35.5844 32.3128 35.5197 32.3981L35.6623 32.4671L35.3343 32.8131L7.93618 61.7135C7.50708 62.1662 6.67492 61.7305 6.8116 61.1247L7.80481 56.7231L9.00829 51.3896L9.80564 47.856C9.84914 47.6632 10.0537 47.5519 10.2625 47.6075C10.4713 47.663 10.6053 47.8642 10.5618 48.057L9.76444 51.5906L8.56097 56.9241L7.67288 60.8598L33.4301 33.6902C30.9068 34.4184 26.906 33.883 22.9702 32.0891C19.253 30.3949 16.5334 28.0064 15.571 25.8576L12.9538 37.456L12.1565 40.9897L11.7578 42.7565C11.7143 42.9493 11.5098 43.0605 11.301 43.005C11.0922 42.9495 10.9582 42.7482 11.0017 42.5555L11.4003 40.7887L12.1977 37.255L15.2121 23.8962C15.233 23.7314 15.2691 23.5706 15.3208 23.4144Z"/>
</mask>
<path fill-rule="evenodd" clip-rule="evenodd" d="M15.3208 23.4144L15.3871 23.1204L15.4845 22.689L15.6451 22.7668C17.2655 20.4301 22.8251 20.5072 28.2606 22.9847C33.8286 25.5224 37.158 29.6178 35.6971 32.1319C35.6436 32.2241 35.5844 32.3128 35.5197 32.3981L35.6623 32.4671L35.3343 32.8131L7.93618 61.7135C7.50708 62.1662 6.67492 61.7305 6.8116 61.1247L7.80481 56.7231L9.00829 51.3896L9.80564 47.856C9.84914 47.6632 10.0537 47.5519 10.2625 47.6075C10.4713 47.663 10.6053 47.8642 10.5618 48.057L9.76444 51.5906L8.56097 56.9241L7.67288 60.8598L33.4301 33.6902C30.9068 34.4184 26.906 33.883 22.9702 32.0891C19.253 30.3949 16.5334 28.0064 15.571 25.8576L12.9538 37.456L12.1565 40.9897L11.7578 42.7565C11.7143 42.9493 11.5098 43.0605 11.301 43.005C11.0922 42.9495 10.9582 42.7482 11.0017 42.5555L11.4003 40.7887L12.1977 37.255L15.2121 23.8962C15.233 23.7314 15.2691 23.5706 15.3208 23.4144Z" fill="white"/>
<path d="M15.3871 23.1204L16.1505 23.3089L16.1505 23.3089L15.3871 23.1204ZM15.3208 23.4144L16.0674 23.6634L16.0772 23.6336L16.0841 23.6029L15.3208 23.4144ZM15.4845 22.689L15.812 22.0563L14.919 21.6235L14.7211 22.5005L15.4845 22.689ZM15.6451 22.7668L15.3176 23.3995L15.9463 23.7042L16.3091 23.1811L15.6451 22.7668ZM28.2606 22.9847L27.9516 23.6261L28.2606 22.9847ZM35.6971 32.1319L35.0052 31.7616L35.0052 31.7616L35.6971 32.1319ZM35.5197 32.3981L34.8721 31.9612L34.3651 32.6299L35.1922 33.0307L35.5197 32.3981ZM35.6623 32.4671L36.2624 32.9599L36.9076 32.2793L35.9898 31.8345L35.6623 32.4671ZM35.3343 32.8131L34.7341 32.3204L35.3343 32.8131ZM7.93618 61.7135L7.33601 61.2208L7.33601 61.2208L7.93618 61.7135ZM6.8116 61.1247L6.04822 60.9362L6.04822 60.9362L6.8116 61.1247ZM7.80481 56.7231L8.56819 56.9116L8.56819 56.9116L7.80481 56.7231ZM9.00829 51.3896L9.77166 51.5781L9.00829 51.3896ZM9.80564 47.856L9.04227 47.6675L9.04227 47.6675L9.80564 47.856ZM10.2625 47.6075L10.0908 48.298L10.0909 48.298L10.2625 47.6075ZM10.5618 48.057L9.79842 47.8685L10.5618 48.057ZM9.76444 51.5906L9.00107 51.4021L9.76444 51.5906ZM8.56097 56.9241L9.32434 57.1126L9.32434 57.1126L8.56097 56.9241ZM7.67288 60.8598L6.90951 60.6713L8.27305 61.3526L7.67288 60.8598ZM33.4301 33.6902L34.0303 34.1829L35.9006 32.2101L33.1559 33.0022L33.4301 33.6902ZM22.9702 32.0891L22.6612 32.7305L22.9702 32.0891ZM15.571 25.8576L16.2885 25.6189L15.3112 23.4371L14.8076 25.6691L15.571 25.8576ZM12.9538 37.456L12.1905 37.2675L12.1905 37.2675L12.9538 37.456ZM12.1565 40.9897L11.3931 40.8012L12.1565 40.9897ZM11.7578 42.7565L12.5212 42.945L12.5212 42.945L11.7578 42.7565ZM11.301 43.005L11.4726 42.3145L11.4726 42.3145L11.301 43.005ZM11.0017 42.5555L10.2383 42.367L10.2383 42.367L11.0017 42.5555ZM11.4003 40.7887L10.637 40.6002L10.637 40.6002L11.4003 40.7887ZM12.1977 37.255L12.9611 37.4435L12.9611 37.4435L12.1977 37.255ZM15.2121 23.8962L15.9754 24.0847L15.9822 24.0547L15.9861 24.0241L15.2121 23.8962ZM14.6237 22.9319L14.5574 23.2259L16.0841 23.6029L16.1505 23.3089L14.6237 22.9319ZM14.7211 22.5005L14.6237 22.9319L16.1505 23.3089L16.2478 22.8775L14.7211 22.5005ZM15.9726 22.1341L15.812 22.0563L15.1569 23.3217L15.3176 23.3995L15.9726 22.1341ZM16.3091 23.1811C16.9159 22.306 18.3784 21.7545 20.5573 21.7898C22.6933 21.8245 25.3245 22.4287 27.9516 23.6261L28.5696 22.3433C25.7612 21.0632 22.8949 20.3901 20.4871 20.351C18.1222 20.3126 15.9947 20.8909 14.9811 22.3525L16.3091 23.1811ZM27.9516 23.6261C30.6452 24.8538 32.7538 26.4402 34.002 27.9756C35.2724 29.5381 35.5266 30.8642 35.0052 31.7616L36.3891 32.5023C37.3285 30.8856 36.6485 28.9069 35.2274 27.1588C33.7841 25.3835 31.444 23.6534 28.5696 22.3433L27.9516 23.6261ZM35.0052 31.7616C34.9652 31.8304 34.9208 31.8969 34.8721 31.9612L36.1673 32.8349C36.2479 32.7286 36.322 32.6177 36.3891 32.5023L35.0052 31.7616ZM35.9898 31.8345L35.8472 31.7654L35.1922 33.0307L35.3347 33.0998L35.9898 31.8345ZM35.9344 33.3058L36.2624 32.9599L35.0621 31.9744L34.7341 32.3204L35.9344 33.3058ZM8.53636 62.2063L35.9344 33.3058L34.7341 32.3204L7.33601 61.2208L8.53636 62.2063ZM6.04822 60.9362C5.90081 61.5895 6.29056 62.1645 6.81017 62.4366C7.33311 62.7104 8.05821 62.7107 8.53636 62.2063L7.33601 61.2208C7.34692 61.2093 7.38083 61.187 7.43038 61.1821C7.47148 61.1781 7.49941 61.1882 7.51327 61.1955C7.52724 61.2028 7.54531 61.2166 7.55955 61.2425C7.5772 61.2745 7.57706 61.304 7.57497 61.3132L6.04822 60.9362ZM7.04144 56.5346L6.04822 60.9362L7.57497 61.3132L8.56819 56.9116L7.04144 56.5346ZM8.24492 51.2011L7.04144 56.5346L8.56819 56.9116L9.77166 51.5781L8.24492 51.2011ZM9.04227 47.6675L8.24492 51.2011L9.77166 51.5781L10.569 48.0445L9.04227 47.6675ZM10.4341 46.9169C9.7919 46.7462 9.1719 47.093 9.04227 47.6675L10.569 48.0445C10.5264 48.2334 10.3154 48.3577 10.0908 48.298L10.4341 46.9169ZM11.3252 48.2455C11.4525 47.6812 11.0642 47.0844 10.4341 46.9169L10.0909 48.298C9.87835 48.2415 9.75809 48.0472 9.79842 47.8685L11.3252 48.2455ZM10.5278 51.7791L11.3252 48.2455L9.79842 47.8685L9.00107 51.4021L10.5278 51.7791ZM9.32434 57.1126L10.5278 51.7791L9.00107 51.4021L7.79759 56.7356L9.32434 57.1126ZM8.43625 61.0483L9.32434 57.1126L7.79759 56.7356L6.90951 60.6713L8.43625 61.0483ZM32.83 33.1975L7.07271 60.3671L8.27305 61.3526L34.0303 34.1829L32.83 33.1975ZM33.1559 33.0022C30.8913 33.6557 27.1119 33.1946 23.2792 31.4478L22.6612 32.7305C26.7002 34.5714 30.9223 35.1811 33.7043 34.3782L33.1559 33.0022ZM23.2792 31.4478C19.6586 29.7975 17.1422 27.5248 16.2885 25.6189L14.8534 26.0963C15.9247 28.4879 18.8473 30.9922 22.6612 32.7305L23.2792 31.4478ZM13.7172 37.6445L16.3344 26.0461L14.8076 25.6691L12.1905 37.2675L13.7172 37.6445ZM12.9199 41.1782L13.7172 37.6445L12.1905 37.2675L11.3931 40.8012L12.9199 41.1782ZM12.5212 42.945L12.9199 41.1782L11.3931 40.8012L10.9944 42.568L12.5212 42.945ZM11.1294 43.6956C11.7716 43.8663 12.3916 43.5195 12.5212 42.945L10.9945 42.568C11.0371 42.379 11.248 42.2547 11.4726 42.3145L11.1294 43.6956ZM10.2383 42.367C10.111 42.9312 10.4993 43.5281 11.1294 43.6956L11.4726 42.3145C11.6851 42.3709 11.8054 42.5652 11.765 42.744L10.2383 42.367ZM10.637 40.6002L10.2383 42.367L11.765 42.744L12.1637 40.9772L10.637 40.6002ZM11.4343 37.0665L10.637 40.6002L12.1637 40.9772L12.9611 37.4435L11.4343 37.0665ZM14.4487 23.7077L11.4343 37.0665L12.9611 37.4435L15.9754 24.0847L14.4487 23.7077ZM15.9861 24.0241C16.002 23.8994 16.0291 23.7791 16.0674 23.6634L14.5742 23.1655C14.5092 23.362 14.4641 23.5634 14.438 23.7684L15.9861 24.0241Z" fill="black" mask="url(#path-8-inside-2_252_788)"/>
<path d="M27.1286 40.7824C23.7807 40.3776 21.038 39.1607 18.6225 36.584" stroke="black" stroke-width="0.75" stroke-linecap="round"/>
<path d="M24.965 42.9774C22.4617 42.449 20.3517 41.4851 18.3924 39.7334" stroke="black" stroke-width="0.75" stroke-linecap="round"/>
<path d="M15.5626 36.9305C14.5972 35.7572 13.9309 34.5244 13.5559 32.977" stroke="black" stroke-width="0.75" stroke-linecap="round"/>
<path d="M16.3134 34.243C15.348 33.0697 14.6817 31.8369 14.3067 30.2895" stroke="black" stroke-width="0.75" stroke-linecap="round"/>
<path d="M23.508 7.17808L22.7912 6.43026L22.9837 7.41581L23.3786 9.43715L21.6567 10.218L20.8799 10.5702L21.7337 10.7684L23.7292 11.2314L24.1285 13.2755L24.3089 14.1987L24.7097 13.3612L25.529 11.6491L27.4845 12.1029L28.4412 12.3249L27.7697 11.6244L26.2831 10.0734L27.1191 8.3263L27.4768 7.57877L26.7 7.93103L24.9781 8.71186L23.508 7.17808Z" fill="black" stroke="white" stroke-width="0.6"/>
<path d="M23.6471 15.5703L22.9303 14.8224L23.1229 15.808L23.2991 16.7102L22.5404 17.0543L21.7636 17.4065L22.6174 17.6047L23.5145 17.8129L23.6952 18.7378L23.8756 19.6611L24.2764 18.8235L24.6356 18.073L25.4928 18.2719L26.4494 18.4939L25.778 17.7934L25.1052 17.0915L25.4811 16.3061L25.8389 15.5586L25.062 15.9108L24.3033 16.2549L23.6471 15.5703Z" fill="black" stroke="white" stroke-width="0.6"/>
<path d="M42.409 11.2929L41.6922 10.5451L41.8848 11.5306L42.061 12.4329L41.3023 12.7769L40.5255 13.1292L41.3793 13.3273L42.2764 13.5355L42.4571 14.4605L42.6375 15.3837L43.0383 14.5462L43.3975 13.7957L44.2547 13.9946L45.2113 14.2166L44.5399 13.5161L43.8671 12.8142L44.243 12.0287L44.6008 11.2812L43.8239 11.6335L43.0652 11.9775L42.409 11.2929Z" fill="black" stroke="white" stroke-width="0.6"/>
<path d="M37.2321 5.18331L36.5154 4.43548L36.7079 5.42103L36.9716 6.77091L35.8276 7.28969L35.0508 7.64194L35.9046 7.84008L37.2411 8.15022L37.5092 9.52283L37.6896 10.4461L38.0904 9.60853L38.6336 8.47338L39.9302 8.77426L40.8868 8.99625L40.2153 8.29572L39.2171 7.25419L39.777 6.08409L40.1347 5.33656L39.3579 5.68882L38.2139 6.20759L37.2321 5.18331Z" fill="black" stroke="white" stroke-width="0.6"/>
<path d="M42.4801 18.3128L41.7634 17.565L41.9559 18.5506L42.3508 20.5719L40.6288 21.3527L39.852 21.705L40.7059 21.9031L42.7013 22.3662L43.1007 24.4103L43.281 25.3335L43.6818 24.496L44.5012 22.7839L46.4567 23.2377L47.4133 23.4597L46.7419 22.7591L45.2552 21.2081L46.0913 19.4611L46.449 18.7135L45.6722 19.0658L43.9503 19.8466L42.4801 18.3128Z" fill="black" stroke="white" stroke-width="0.6"/>
<path d="M34.0009 11.776L33.2841 11.0281L33.4766 12.0137L33.7841 13.5874L32.4474 14.1935L31.6706 14.5458L32.5244 14.7439L34.0806 15.105L34.3925 16.7015L34.5728 17.6247L34.9736 16.7872L35.6089 15.4597L37.1251 15.8115L38.0817 16.0335L37.4103 15.333L36.2492 14.1216L36.9012 12.7592L37.2589 12.0117L36.4821 12.364L35.1454 12.9701L34.0009 11.776Z" fill="black" stroke="white" stroke-width="0.6"/>
<path d="M13.6359 15.8895L12.9191 15.1417L13.1116 16.1272L13.3316 17.2533L12.3802 17.6847L11.6034 18.0369L12.4572 18.2351L13.5741 18.4942L13.7985 19.643L13.9789 20.5663L14.3797 19.7287L14.8308 18.7859L15.9078 19.0358L16.8644 19.2578L16.1929 18.5573L15.3574 17.6856L15.8253 16.7078L16.1831 15.9603L15.4062 16.3125L14.4549 16.7439L13.6359 15.8895Z" fill="black" stroke="white" stroke-width="0.6"/>
<path d="M36.582 19.5848L35.8653 18.837L36.0578 19.8225L36.2778 20.9486L35.3264 21.38L34.5496 21.7322L35.4034 21.9304L36.5202 22.1896L36.7447 23.3383L36.925 24.2616L37.3258 23.424L37.777 22.4812L38.8539 22.7311L39.8105 22.9531L39.1391 22.2526L38.3036 21.3809L38.7715 20.4031L39.1292 19.6556L38.3524 20.0078L37.401 20.4392L36.582 19.5848Z" fill="black" stroke="white" stroke-width="0.6"/>
<path d="M30.9308 3.80354L30.214 3.05572L30.4066 4.04127L30.6265 5.16733L29.6752 5.59874L28.8983 5.951L29.7522 6.14914L30.869 6.40831L31.0934 7.55709L31.2738 8.48032L31.6746 7.6428L32.1258 6.69996L33.2027 6.94986L34.1593 7.17185L33.4878 6.47132L32.6523 5.59963L33.1202 4.62184L33.478 3.87432L32.7012 4.22657L31.7498 4.65799L30.9308 3.80354Z" fill="black" stroke="white" stroke-width="0.6"/>
<path d="M23.285 7.37189L24.9128 9.07023L26.8392 8.19669L25.9189 10.1199L27.5467 11.8182L25.3501 11.3084L24.4298 13.2316L23.9925 10.9934L21.7959 10.4836L23.7223 9.61011L23.285 7.37189Z" fill="black"/>
<path d="M23.4248 15.7699L24.2388 16.6191L25.202 16.1823L24.7418 17.1439L25.5557 17.9931L24.4574 17.7382L23.9972 18.6998L23.7786 17.5807L22.6803 17.3258L23.6435 16.889L23.4248 15.7699Z" fill="black"/>
<path d="M42.1868 11.4906L43.0007 12.3398L43.9639 11.903L43.5038 12.8646L44.3177 13.7138L43.2194 13.4589L42.7592 14.4205L42.5406 13.3014L41.4422 13.0465L42.4054 12.6097L42.1868 11.4906Z" fill="black"/>
<path d="M37.0091 5.37712L38.1486 6.56596L39.497 5.95448L38.8528 7.3007L39.9923 8.48953L38.4547 8.13271L37.8104 9.47892L37.5043 7.91217L35.9667 7.55535L37.3152 6.94387L37.0091 5.37712Z" fill="black"/>
<path d="M13.4128 16.0813L14.3895 17.1003L15.5454 16.5762L14.9932 17.7301L15.9699 18.7491L14.6519 18.4433L14.0997 19.5972L13.8373 18.2542L12.5194 17.9484L13.6752 17.4243L13.4128 16.0813Z" fill="black"/>
<path d="M30.7078 3.99736L31.6845 5.01636L32.8403 4.49223L32.2881 5.64613L33.2648 6.66513L31.9469 6.35928L31.3947 7.51318L31.1323 6.17026L29.8143 5.86441L30.9702 5.34028L30.7078 3.99736Z" fill="black"/>
<path d="M36.359 19.7786L37.3357 20.7976L38.4915 20.2735L37.9393 21.4274L38.916 22.4464L37.5981 22.1405L37.0459 23.2944L36.7835 21.9515L35.4655 21.6457L36.6214 21.1215L36.359 19.7786Z" fill="black"/>
<path d="M19.1486 27.8433C15.0008 18.3757 22.8631 17.1768 17.2314 9.42909" stroke="white" stroke-width="2.3" stroke-linecap="round"/>
<path d="M27.5939 29.1025C29.2976 22.231 37.7011 16.5023 39.5441 16.2525" stroke="white" stroke-width="2.3" stroke-linecap="round"/>
<path d="M22.7614 31.2292C22.7614 31.2292 22.401 23.3523 26.7189 21.0579C31.0369 18.7634 30.9903 11.775 30.9903 11.775" stroke="white" stroke-width="2.3" stroke-linecap="round"/>
<path d="M30.1136 30.9315C30.1136 30.9315 33.9576 31.3024 34.896 27.2136C35.8344 23.1249 40.6659 24.855 40.6659 24.855" stroke="white" stroke-width="2.3" stroke-linecap="round"/>
<path d="M18.7239 28.0764C14.8725 18.4971 22.7565 17.488 17.3716 9.59449" stroke="black" stroke-width="0.75" stroke-linecap="round"/>
<path d="M27.5926 29.0947C29.2963 22.2232 37.6997 16.4945 39.5427 16.2447" stroke="black" stroke-width="0.75" stroke-linecap="round"/>
<path d="M22.7593 31.2233C22.7593 31.2233 22.3989 23.3464 26.7169 21.052C31.0348 18.7576 30.9883 11.7691 30.9883 11.7691" stroke="black" stroke-width="0.75" stroke-linecap="round"/>
<path d="M30.1111 30.9237C30.1111 30.9237 33.9551 31.2946 34.8934 27.2058C35.8318 23.1171 40.6634 24.8472 40.6634 24.8472" stroke="black" stroke-width="0.75" stroke-linecap="round"/>
<path d="M15.4444 24.1542C15.3944 26.7959 19.545 30.6672 24.982 32.8066C30.4191 34.946 34.418 33.71 35.4322 31.9888" stroke="black" stroke-width="0.8" stroke-linecap="round"/>
</g>
<defs>
<filter id="filter0_d_252_788" x="-2" y="0" width="58" height="74" filterUnits="userSpaceOnUse" color-interpolation-filters="sRGB">
<feFlood flood-opacity="0" result="BackgroundImageFix"/>
<feColorMatrix in="SourceAlpha" type="matrix" values="0 0 0 0 0 0 0 0 0 0 0 0 0 0 0 0 0 0 127 0" result="hardAlpha"/>
<feOffset dx="2" dy="4"/>
<feGaussianBlur stdDeviation="2"/>
<feComposite in2="hardAlpha" operator="out"/>
<feColorMatrix type="matrix" values="0 0 0 0 0 0 0 0 0 0 0 0 0 0 0 0 0 0 0.35 0"/>
<feBlend mode="normal" in2="BackgroundImageFix" result="effect1_dropShadow_252_788"/>
<feBlend mode="normal" in="SourceGraphic" in2="effect1_dropShadow_252_788" result="shape"/>
</filter>
</defs>
</svg>
