<svg width="43" height="48" viewBox="0 0 43 48" fill="none" xmlns="http://www.w3.org/2000/svg">
<g filter="url(#filter0_d_252_867)">
<path d="M4.38568 18.6329L4.62801 19.0531L4.38568 18.6329C3.6116 19.0794 3.13464 19.905 3.13464 20.7986V36.5792C3.13464 37.9599 4.25393 39.0792 5.63464 39.0792H33.3654C34.7461 39.0792 35.8654 37.9599 35.8654 36.5792V20.7754C35.8654 19.8974 35.4048 19.0838 34.652 18.6319L21.0837 10.4875C20.3052 10.0202 19.3346 10.0118 18.5481 10.4653L4.38568 18.6329Z" fill="white" stroke="white"/>
<path d="M4.13464 20.7986C4.13464 20.2624 4.42081 19.7671 4.88527 19.4992L19.0477 11.3316C19.5196 11.0595 20.1019 11.0645 20.569 11.3449L34.1374 19.4893C34.5891 19.7604 34.8654 20.2486 34.8654 20.7754V36.5792C34.8654 37.4076 34.1938 38.0792 33.3654 38.0792H5.63464C4.80622 38.0792 4.13464 37.4076 4.13464 36.5792V20.7986Z" fill="white" stroke="black"/>
<path d="M19.7949 30.9407C19.6192 31.0691 19.3807 31.0691 19.205 30.9407L6.0865 21.3577C5.69591 21.0724 5.89774 20.4539 6.38144 20.4539L19.4999 20.4539H32.6184C33.1021 20.4539 33.3039 21.0724 32.9134 21.3577L19.7949 30.9407Z" fill="white" stroke="black"/>
<path d="M33.1714 17.5H33.6714V17V2C33.6714 1.17157 32.9998 0.5 32.1714 0.5H6.82855C6.00013 0.5 5.32855 1.17157 5.32855 2V17V17.5H5.82855H33.1714Z" fill="white" stroke="white"/>
<path d="M6.32855 2C6.32855 1.72386 6.55241 1.5 6.82855 1.5H32.1714C32.4476 1.5 32.6714 1.72386 32.6714 2V20C32.6714 20.2761 32.4476 20.5 32.1714 20.5H6.82855C6.55241 20.5 6.32855 20.2761 6.32855 20V2Z" fill="white" stroke="black"/>
<path d="M6.828 17H32.172V20C32.172 21.1046 31.2766 22 30.172 22H8.828C7.72343 22 6.828 21.1046 6.828 20V17Z" fill="white"/>
<path d="M13.5 19C13.5 15.4101 16.4101 12.5 20 12.5C23.5899 12.5 26.5 15.4101 26.5 19V22.5H13.5V19Z" fill="white" stroke="black"/>
<mask id="path-8-inside-1_252_867" fill="white">
<path d="M16.1921 17.2871H23.9217V31.5973H16.1921V17.2871Z"/>
</mask>
<path d="M16.1921 17.2871H23.9217V31.5973H16.1921V17.2871Z" fill="white"/>
<path d="M23.9217 31.5973V32.5973H24.9217V31.5973H23.9217ZM16.1921 31.5973H15.1921V32.5973H16.1921V31.5973ZM22.9217 17.2871V31.5973H24.9217V17.2871H22.9217ZM23.9217 30.5973H16.1921V32.5973H23.9217V30.5973ZM17.1921 31.5973V17.2871H15.1921V31.5973H17.1921Z" fill="black" mask="url(#path-8-inside-1_252_867)"/>
<circle cx="20.4" cy="8.4" r="2.9" fill="white" stroke="black"/>
<path d="M19.1808 25.8461C19.3659 25.6926 19.6341 25.6926 19.8192 25.8461L33.5476 37.2348C33.9079 37.5337 33.6965 38.1196 33.2283 38.1196H5.77167C5.30347 38.1196 5.09208 37.5337 5.45243 37.2348L19.1808 25.8461Z" fill="white" stroke="black"/>
</g>
<defs>
<filter id="filter0_d_252_867" x="0.634644" y="0" width="41.7308" height="47.5801" filterUnits="userSpaceOnUse" color-interpolation-filters="sRGB">
<feFlood flood-opacity="0" result="BackgroundImageFix"/>
<feColorMatrix in="SourceAlpha" type="matrix" values="0 0 0 0 0 0 0 0 0 0 0 0 0 0 0 0 0 0 127 0" result="hardAlpha"/>
<feOffset dx="2" dy="4"/>
<feGaussianBlur stdDeviation="2"/>
<feComposite in2="hardAlpha" operator="out"/>
<feColorMatrix type="matrix" values="0 0 0 0 0 0 0 0 0 0 0 0 0 0 0 0 0 0 0.35 0"/>
<feBlend mode="normal" in2="BackgroundImageFix" result="effect1_dropShadow_252_867"/>
<feBlend mode="normal" in="SourceGraphic" in2="effect1_dropShadow_252_867" result="shape"/>
</filter>
</defs>
</svg>
