<svg width="34" height="36" viewBox="0 0 34 36" fill="none" xmlns="http://www.w3.org/2000/svg">
<g clip-path="url(#clip0_252_849)" filter="url(#filter0_d_252_849)">
<circle cx="14.9855" cy="15.0148" r="12.9855" fill="white"/>
<mask id="path-2-inside-1_252_849" fill="white">
<path d="M19.3345 5.2259C19.4961 4.86613 19.9201 4.70354 20.269 4.88748C22.3726 5.99649 24.0812 7.74122 25.1449 9.8815C26.3149 12.2355 26.6324 14.9224 26.0434 17.4843C25.4544 20.0462 23.9954 22.3246 21.9148 23.9313C19.8343 25.5381 17.261 26.3737 14.6334 26.2958C12.0058 26.218 9.48654 25.2314 7.50479 23.5043C5.52304 21.7772 4.20146 19.4164 3.76522 16.8241C3.32897 14.2318 3.80507 11.5684 5.11238 9.28783C6.30099 7.2143 8.10984 5.57381 10.2755 4.59132C10.6346 4.42836 11.0483 4.61578 11.1883 4.98449C11.3284 5.35321 11.1417 5.76333 10.784 5.92953C8.92679 6.79243 7.3758 8.21142 6.35157 9.99818C5.20861 11.9921 4.79236 14.3206 5.17376 16.587C5.55516 18.8535 6.71061 20.9175 8.44323 22.4275C10.1759 23.9375 12.3785 24.8 14.6757 24.8681C16.973 24.9362 19.2228 24.2056 21.0418 22.8009C22.8608 21.3961 24.1364 19.4041 24.6514 17.1643C25.1663 14.9244 24.8887 12.5753 23.8658 10.5172C22.9492 8.67294 21.485 7.16459 19.6821 6.19323C19.3349 6.00614 19.1728 5.58568 19.3345 5.2259Z"/>
</mask>
<path d="M19.3345 5.2259C19.4961 4.86613 19.9201 4.70354 20.269 4.88748C22.3726 5.99649 24.0812 7.74122 25.1449 9.8815C26.3149 12.2355 26.6324 14.9224 26.0434 17.4843C25.4544 20.0462 23.9954 22.3246 21.9148 23.9313C19.8343 25.5381 17.261 26.3737 14.6334 26.2958C12.0058 26.218 9.48654 25.2314 7.50479 23.5043C5.52304 21.7772 4.20146 19.4164 3.76522 16.8241C3.32897 14.2318 3.80507 11.5684 5.11238 9.28783C6.30099 7.2143 8.10984 5.57381 10.2755 4.59132C10.6346 4.42836 11.0483 4.61578 11.1883 4.98449C11.3284 5.35321 11.1417 5.76333 10.784 5.92953C8.92679 6.79243 7.3758 8.21142 6.35157 9.99818C5.20861 11.9921 4.79236 14.3206 5.17376 16.587C5.55516 18.8535 6.71061 20.9175 8.44323 22.4275C10.1759 23.9375 12.3785 24.8 14.6757 24.8681C16.973 24.9362 19.2228 24.2056 21.0418 22.8009C22.8608 21.3961 24.1364 19.4041 24.6514 17.1643C25.1663 14.9244 24.8887 12.5753 23.8658 10.5172C22.9492 8.67294 21.485 7.16459 19.6821 6.19323C19.3349 6.00614 19.1728 5.58568 19.3345 5.2259Z" stroke="black" stroke-width="3" mask="url(#path-2-inside-1_252_849)"/>
<line x1="15.5159" y1="3" x2="15.5159" y2="14.6826" stroke="white" stroke-width="6" stroke-linecap="round"/>
<line x1="15.4092" y1="2.11328" x2="15.4092" y2="16.0856" stroke="black" stroke-width="1.5" stroke-linecap="round"/>
</g>
<defs>
<filter id="filter0_d_252_849" x="0" y="0" width="33.971" height="36" filterUnits="userSpaceOnUse" color-interpolation-filters="sRGB">
<feFlood flood-opacity="0" result="BackgroundImageFix"/>
<feColorMatrix in="SourceAlpha" type="matrix" values="0 0 0 0 0 0 0 0 0 0 0 0 0 0 0 0 0 0 127 0" result="hardAlpha"/>
<feOffset dx="2" dy="4"/>
<feGaussianBlur stdDeviation="2"/>
<feComposite in2="hardAlpha" operator="out"/>
<feColorMatrix type="matrix" values="0 0 0 0 0 0 0 0 0 0 0 0 0 0 0 0 0 0 0.35 0"/>
<feBlend mode="normal" in2="BackgroundImageFix" result="effect1_dropShadow_252_849"/>
<feBlend mode="normal" in="SourceGraphic" in2="effect1_dropShadow_252_849" result="shape"/>
</filter>
<clipPath id="clip0_252_849">
<rect width="25.971" height="28.0003" fill="white" transform="translate(2)"/>
</clipPath>
</defs>
</svg>
