<svg width="41" height="40" viewBox="0 0 41 40" fill="none" xmlns="http://www.w3.org/2000/svg">
<g filter="url(#filter0_d_252_836)">
<mask id="path-1-inside-1_252_836" fill="white">
<path fill-rule="evenodd" clip-rule="evenodd" d="M5.84732 15.3952C7.63292 16.008 9.05532 17.5024 9.65052 19.3968L9.71452 19.5888C10.3961 21.5984 10.1193 23.7616 8.97692 25.384C8.76892 25.6784 8.81532 26.0304 9.03452 26.1968L12.3497 28.7152C12.4665 28.8032 12.5801 28.8032 12.6505 28.7952C12.7305 28.7824 12.8473 28.7392 12.9417 28.6048L13.3113 28.08C14.4137 26.5168 16.1897 25.552 18.0649 25.4976C20.1705 25.4544 22.0617 26.4192 23.2393 28.12L23.4281 28.3936C23.5225 28.528 23.6377 28.5728 23.7193 28.5856C23.7897 28.6 23.9049 28.5952 24.0201 28.5056L27.3177 26.0176C27.5481 25.8448 27.5993 25.4752 27.4281 25.2272L27.0121 24.6272C25.9401 23.0784 25.6217 21.0688 26.1609 19.2528C26.7465 17.2752 28.2361 15.7104 30.1481 15.0704L30.4697 14.9616C30.7273 14.8768 30.8665 14.5568 30.7753 14.2624L29.5161 10.2288C29.4569 10.04 29.3353 9.9552 29.2681 9.92C29.1721 9.8704 29.0681 9.8624 28.9689 9.896L28.4249 10.0768C26.5641 10.696 24.5113 10.36 22.9353 9.1744L22.7625 9.0448C21.2649 7.9184 20.3737 6.1024 20.3801 4.1888L20.3833 3.7408C20.3833 3.528 20.2825 3.3952 20.2217 3.3344C20.1641 3.2752 20.0665 3.2048 19.9289 3.2048L15.8537 3.2C15.6041 3.2 15.4009 3.4384 15.3993 3.7328L15.3977 4.12C15.3897 6.064 14.4793 7.9136 12.9625 9.0704L12.7561 9.2272C11.0873 10.496 8.91132 10.8544 6.94012 10.1824C6.86492 10.1568 6.79452 10.1616 6.72732 10.1968C6.67612 10.2224 6.58332 10.288 6.53852 10.4336L5.23132 14.5872C5.13692 14.8896 5.29212 15.2048 5.58492 15.3056L5.84732 15.3952ZM10.4153 31.2624L7.10012 28.7456C5.51612 27.5456 5.16572 25.2368 6.31772 23.6C6.91612 22.752 7.03932 21.6624 6.68732 20.6288L6.59932 20.36C6.30652 19.4288 5.63772 18.7056 4.81052 18.4224L4.54812 18.3312C2.59932 17.664 1.55932 15.5984 2.17852 13.6272L3.48412 9.4752C3.78012 8.536 4.41852 7.7776 5.28252 7.3408C6.12732 6.9152 7.08252 6.8496 7.97532 7.1552C8.93372 7.4816 9.99772 7.304 10.8185 6.68L11.0249 6.5232C11.7545 5.9664 12.1945 5.0624 12.1977 4.1072L12.1993 3.7216C12.2073 1.6672 13.8473 0 15.8521 0L19.9337 0.0048C20.8969 0.0064 21.8057 0.3872 22.4905 1.0768C23.1993 1.7888 23.5865 2.7408 23.5833 3.7568L23.5801 4.2032C23.5769 5.1088 23.9913 5.9648 24.6905 6.4896L24.8617 6.6192C25.5961 7.1712 26.5529 7.3296 27.4121 7.0416L27.9545 6.8608C28.8777 6.5536 29.8601 6.6288 30.7257 7.072C31.6137 7.5264 32.2697 8.3088 32.5705 9.2768L33.8297 13.3104C34.4377 15.2592 33.3849 17.3616 31.4857 17.9968L31.1641 18.104C30.2425 18.4144 29.5177 19.1824 29.2281 20.1616C28.9625 21.0592 29.1161 22.0464 29.6425 22.8048L30.0585 23.4048C31.2009 25.056 30.8361 27.3728 29.2457 28.5712L25.9481 31.0608C25.1561 31.6592 24.1849 31.9008 23.2105 31.7456C22.2281 31.5872 21.3705 31.0432 20.7961 30.2144L20.6073 29.9392C20.0473 29.1328 19.1513 28.6432 18.2121 28.696C17.2713 28.7216 16.4585 29.168 15.9273 29.9232L15.5577 30.448C14.9785 31.2688 14.1193 31.8048 13.1417 31.9584C12.9545 31.9872 12.7689 32 12.5849 32C11.8073 32 11.0521 31.7472 10.4153 31.2624ZM15.6028 15.9998C15.6028 17.323 16.6796 18.3998 18.0028 18.3998C19.326 18.3998 20.4028 17.323 20.4028 15.9998C20.4028 14.6766 19.326 13.5998 18.0028 13.5998C16.6796 13.5998 15.6028 14.6766 15.6028 15.9998ZM12.4028 15.9998C12.4028 12.9118 14.9148 10.3998 18.0028 10.3998C21.0908 10.3998 23.6028 12.9118 23.6028 15.9998C23.6028 19.0878 21.0908 21.5998 18.0028 21.5998C14.9148 21.5998 12.4028 19.0878 12.4028 15.9998Z"/>
</mask>
<path fill-rule="evenodd" clip-rule="evenodd" d="M5.84732 15.3952C7.63292 16.008 9.05532 17.5024 9.65052 19.3968L9.71452 19.5888C10.3961 21.5984 10.1193 23.7616 8.97692 25.384C8.76892 25.6784 8.81532 26.0304 9.03452 26.1968L12.3497 28.7152C12.4665 28.8032 12.5801 28.8032 12.6505 28.7952C12.7305 28.7824 12.8473 28.7392 12.9417 28.6048L13.3113 28.08C14.4137 26.5168 16.1897 25.552 18.0649 25.4976C20.1705 25.4544 22.0617 26.4192 23.2393 28.12L23.4281 28.3936C23.5225 28.528 23.6377 28.5728 23.7193 28.5856C23.7897 28.6 23.9049 28.5952 24.0201 28.5056L27.3177 26.0176C27.5481 25.8448 27.5993 25.4752 27.4281 25.2272L27.0121 24.6272C25.9401 23.0784 25.6217 21.0688 26.1609 19.2528C26.7465 17.2752 28.2361 15.7104 30.1481 15.0704L30.4697 14.9616C30.7273 14.8768 30.8665 14.5568 30.7753 14.2624L29.5161 10.2288C29.4569 10.04 29.3353 9.9552 29.2681 9.92C29.1721 9.8704 29.0681 9.8624 28.9689 9.896L28.4249 10.0768C26.5641 10.696 24.5113 10.36 22.9353 9.1744L22.7625 9.0448C21.2649 7.9184 20.3737 6.1024 20.3801 4.1888L20.3833 3.7408C20.3833 3.528 20.2825 3.3952 20.2217 3.3344C20.1641 3.2752 20.0665 3.2048 19.9289 3.2048L15.8537 3.2C15.6041 3.2 15.4009 3.4384 15.3993 3.7328L15.3977 4.12C15.3897 6.064 14.4793 7.9136 12.9625 9.0704L12.7561 9.2272C11.0873 10.496 8.91132 10.8544 6.94012 10.1824C6.86492 10.1568 6.79452 10.1616 6.72732 10.1968C6.67612 10.2224 6.58332 10.288 6.53852 10.4336L5.23132 14.5872C5.13692 14.8896 5.29212 15.2048 5.58492 15.3056L5.84732 15.3952ZM10.4153 31.2624L7.10012 28.7456C5.51612 27.5456 5.16572 25.2368 6.31772 23.6C6.91612 22.752 7.03932 21.6624 6.68732 20.6288L6.59932 20.36C6.30652 19.4288 5.63772 18.7056 4.81052 18.4224L4.54812 18.3312C2.59932 17.664 1.55932 15.5984 2.17852 13.6272L3.48412 9.4752C3.78012 8.536 4.41852 7.7776 5.28252 7.3408C6.12732 6.9152 7.08252 6.8496 7.97532 7.1552C8.93372 7.4816 9.99772 7.304 10.8185 6.68L11.0249 6.5232C11.7545 5.9664 12.1945 5.0624 12.1977 4.1072L12.1993 3.7216C12.2073 1.6672 13.8473 0 15.8521 0L19.9337 0.0048C20.8969 0.0064 21.8057 0.3872 22.4905 1.0768C23.1993 1.7888 23.5865 2.7408 23.5833 3.7568L23.5801 4.2032C23.5769 5.1088 23.9913 5.9648 24.6905 6.4896L24.8617 6.6192C25.5961 7.1712 26.5529 7.3296 27.4121 7.0416L27.9545 6.8608C28.8777 6.5536 29.8601 6.6288 30.7257 7.072C31.6137 7.5264 32.2697 8.3088 32.5705 9.2768L33.8297 13.3104C34.4377 15.2592 33.3849 17.3616 31.4857 17.9968L31.1641 18.104C30.2425 18.4144 29.5177 19.1824 29.2281 20.1616C28.9625 21.0592 29.1161 22.0464 29.6425 22.8048L30.0585 23.4048C31.2009 25.056 30.8361 27.3728 29.2457 28.5712L25.9481 31.0608C25.1561 31.6592 24.1849 31.9008 23.2105 31.7456C22.2281 31.5872 21.3705 31.0432 20.7961 30.2144L20.6073 29.9392C20.0473 29.1328 19.1513 28.6432 18.2121 28.696C17.2713 28.7216 16.4585 29.168 15.9273 29.9232L15.5577 30.448C14.9785 31.2688 14.1193 31.8048 13.1417 31.9584C12.9545 31.9872 12.7689 32 12.5849 32C11.8073 32 11.0521 31.7472 10.4153 31.2624ZM15.6028 15.9998C15.6028 17.323 16.6796 18.3998 18.0028 18.3998C19.326 18.3998 20.4028 17.323 20.4028 15.9998C20.4028 14.6766 19.326 13.5998 18.0028 13.5998C16.6796 13.5998 15.6028 14.6766 15.6028 15.9998ZM12.4028 15.9998C12.4028 12.9118 14.9148 10.3998 18.0028 10.3998C21.0908 10.3998 23.6028 12.9118 23.6028 15.9998C23.6028 19.0878 21.0908 21.5998 18.0028 21.5998C14.9148 21.5998 12.4028 19.0878 12.4028 15.9998Z" fill="black"/>
<path d="M5.84732 15.3952L6.17193 14.4493L6.17047 14.4489L5.84732 15.3952ZM9.65052 19.3968L8.6965 19.6965L8.6991 19.7048L8.70184 19.713L9.65052 19.3968ZM9.71452 19.5888L8.76583 19.905L8.76751 19.91L9.71452 19.5888ZM8.97692 25.384L9.79365 25.961L9.79456 25.9597L8.97692 25.384ZM9.03452 26.1968L9.63943 25.4005L9.63916 25.4003L9.03452 26.1968ZM12.3497 28.7152L11.7448 29.5115L11.748 29.5139L12.3497 28.7152ZM12.6505 28.7952L12.7634 29.7888L12.786 29.7862L12.8085 29.7826L12.6505 28.7952ZM12.9417 28.6048L12.1241 28.029L12.1234 28.03L12.9417 28.6048ZM13.3113 28.08L12.4941 27.5037L12.4937 27.5042L13.3113 28.08ZM18.0649 25.4976L18.0444 24.4978L18.0359 24.498L18.0649 25.4976ZM23.2393 28.12L24.0624 27.552L24.0615 27.5507L23.2393 28.12ZM23.4281 28.3936L22.605 28.9616L22.6098 28.9684L23.4281 28.3936ZM23.7193 28.5856L23.9197 27.6059L23.8971 27.6013L23.8743 27.5977L23.7193 28.5856ZM24.0201 28.5056L23.4178 27.7073L23.412 27.7117L23.4062 27.7162L24.0201 28.5056ZM27.3177 26.0176L26.7177 25.2176L26.7154 25.2193L27.3177 26.0176ZM27.4281 25.2272L28.2511 24.6591L28.2499 24.6574L27.4281 25.2272ZM27.0121 24.6272L26.1899 25.1963L26.1903 25.197L27.0121 24.6272ZM26.1609 19.2528L27.1196 19.5374L27.1198 19.5367L26.1609 19.2528ZM30.1481 15.0704L30.4655 16.0187L30.4686 16.0177L30.1481 15.0704ZM30.4697 14.9616L30.157 14.0117L30.1493 14.0143L30.4697 14.9616ZM30.7753 14.2624L31.7305 13.9665L31.7299 13.9644L30.7753 14.2624ZM29.5161 10.2288L30.4707 9.93081L30.4703 9.9296L29.5161 10.2288ZM29.2681 9.92L29.7321 9.03415L29.7271 9.03157L29.2681 9.92ZM28.9689 9.896L29.2843 10.845L29.2897 10.8431L28.9689 9.896ZM28.4249 10.0768L28.1095 9.12784L28.1092 9.12795L28.4249 10.0768ZM22.9353 9.1744L23.5365 8.37528L23.5353 8.3744L22.9353 9.1744ZM22.7625 9.0448L22.1614 9.84398L22.1625 9.8448L22.7625 9.0448ZM20.3801 4.1888L19.3801 4.18166L19.3801 4.18546L20.3801 4.1888ZM20.3833 3.7408L21.3833 3.74794V3.7408H20.3833ZM20.2217 3.3344L19.5049 4.03182L19.5146 4.04151L20.2217 3.3344ZM19.9289 3.2048L19.9277 4.2048H19.9289V3.2048ZM15.8537 3.2L15.8549 2.2H15.8537V3.2ZM15.3993 3.7328L14.3993 3.72737L14.3993 3.72867L15.3993 3.7328ZM15.3977 4.12L14.3977 4.11587V4.11588L15.3977 4.12ZM12.9625 9.0704L13.5675 9.86668L13.5689 9.86554L12.9625 9.0704ZM12.7561 9.2272L12.1512 8.43092L12.1509 8.43116L12.7561 9.2272ZM6.94012 10.1824L7.2628 9.23589L7.26239 9.23575L6.94012 10.1824ZM6.72732 10.1968L7.17454 11.0912L7.18297 11.087L7.19133 11.0826L6.72732 10.1968ZM6.53852 10.4336L7.49242 10.7338L7.4943 10.7277L6.53852 10.4336ZM5.23132 14.5872L4.27744 14.287L4.27675 14.2892L5.23132 14.5872ZM5.58492 15.3056L5.25941 16.2511L5.26178 16.2519L5.58492 15.3056ZM10.4153 31.2624L11.0211 30.4667L11.02 30.4659L10.4153 31.2624ZM7.10012 28.7456L7.70479 27.9491L7.70398 27.9485L7.10012 28.7456ZM6.31772 23.6L5.50067 23.0234L5.49996 23.0244L6.31772 23.6ZM6.68732 20.6288L5.73689 20.94L5.74071 20.9512L6.68732 20.6288ZM6.59932 20.36L5.6453 20.66L5.64896 20.6711L6.59932 20.36ZM4.81052 18.4224L4.48222 19.367L4.48662 19.3685L4.81052 18.4224ZM4.54812 18.3312L4.87642 17.3866L4.87203 17.3851L4.54812 18.3312ZM2.17852 13.6272L1.22457 13.3272L1.22449 13.3275L2.17852 13.6272ZM3.48412 9.4752L2.53037 9.17461L2.53017 9.17523L3.48412 9.4752ZM5.28252 7.3408L4.8326 6.44773L4.83135 6.44836L5.28252 7.3408ZM7.97532 7.1552L7.65147 8.10131L7.65294 8.10181L7.97532 7.1552ZM10.8185 6.68L10.2136 5.88372L10.2133 5.88393L10.8185 6.68ZM11.0249 6.5232L11.6299 7.31948L11.6316 7.31815L11.0249 6.5232ZM12.1977 4.1072L11.1977 4.10305L11.1977 4.10385L12.1977 4.1072ZM12.1993 3.7216L13.1993 3.72575L13.1993 3.72549L12.1993 3.7216ZM15.8521 0L15.8533 -1H15.8521V0ZM19.9337 0.0048L19.9354 -0.995199L19.9349 -0.995199L19.9337 0.0048ZM22.4905 1.0768L21.7809 1.78143L21.7818 1.78231L22.4905 1.0768ZM23.5833 3.7568L24.5833 3.76397L24.5833 3.75995L23.5833 3.7568ZM23.5801 4.2032L22.5801 4.19603L22.5801 4.19967L23.5801 4.2032ZM24.6905 6.4896L25.2941 5.69228L25.2908 5.68982L24.6905 6.4896ZM24.8617 6.6192L24.2582 7.41652L24.2609 7.41857L24.8617 6.6192ZM27.4121 7.0416L27.0959 6.09292L27.0943 6.09345L27.4121 7.0416ZM27.9545 6.8608L27.6388 5.91195L27.6383 5.91212L27.9545 6.8608ZM30.7257 7.072L30.27 7.96211L30.2702 7.96222L30.7257 7.072ZM32.5705 9.2768L31.6156 9.57355L31.616 9.57479L32.5705 9.2768ZM33.8297 13.3104L34.7843 13.0126L34.7843 13.0124L33.8297 13.3104ZM31.4857 17.9968L31.8019 18.9455L31.8029 18.9452L31.4857 17.9968ZM31.1641 18.104L30.8479 17.1553L30.8449 17.1563L31.1641 18.104ZM29.2281 20.1616L30.187 20.4453L30.1871 20.4452L29.2281 20.1616ZM29.6425 22.8048L30.4643 22.235L30.464 22.2346L29.6425 22.8048ZM30.0585 23.4048L30.8809 22.8358L30.8803 22.835L30.0585 23.4048ZM29.2457 28.5712L28.6439 27.7726L28.6432 27.7731L29.2457 28.5712ZM25.9481 31.0608L25.3456 30.2627L25.3453 30.2629L25.9481 31.0608ZM23.2105 31.7456L23.0513 32.7328L23.0532 32.7332L23.2105 31.7456ZM20.7961 30.2144L19.9715 30.7801L19.9742 30.784L20.7961 30.2144ZM20.6073 29.9392L21.4319 29.3735L21.4287 29.3688L20.6073 29.9392ZM18.2121 28.696L18.2393 29.6956L18.2538 29.6952L18.2683 29.6944L18.2121 28.696ZM15.9273 29.9232L16.7449 30.499L16.7452 30.4985L15.9273 29.9232ZM15.5577 30.448L16.3748 31.0246L16.3753 31.0238L15.5577 30.448ZM13.1417 31.9584L13.2938 32.9468L13.2969 32.9463L13.1417 31.9584ZM5.52272 16.341C6.99085 16.8449 8.19105 18.0878 8.6965 19.6965L10.6045 19.0971C9.9196 16.917 8.275 15.1711 6.17193 14.4494L5.52272 16.341ZM8.70184 19.713L8.76584 19.905L10.6632 19.2726L10.5992 19.0806L8.70184 19.713ZM8.76751 19.91C9.35456 21.6408 9.10384 23.4668 8.15929 24.8083L9.79456 25.9597C11.1348 24.0564 11.4377 21.556 10.6615 19.2676L8.76751 19.91ZM8.1602 24.807C7.71206 25.4413 7.68987 26.4315 8.42988 26.9933L9.63916 25.4003C9.77994 25.5072 9.83259 25.6491 9.84156 25.7495C9.85077 25.8526 9.81906 25.9251 9.79364 25.961L8.1602 24.807ZM8.42962 26.9931L11.7448 29.5115L12.9546 27.9189L9.63943 25.4005L8.42962 26.9931ZM11.748 29.5139C12.1476 29.815 12.5565 29.8123 12.7634 29.7888L12.5376 27.8016C12.5629 27.7987 12.626 27.7937 12.7071 27.8093C12.7938 27.8261 12.8796 27.8623 12.9515 27.9165L11.748 29.5139ZM12.8085 29.7826C13.0977 29.7364 13.4797 29.5787 13.76 29.1796L12.1234 28.03C12.1618 27.9753 12.2194 27.9204 12.2939 27.8778C12.365 27.8371 12.4347 27.817 12.4925 27.8078L12.8085 29.7826ZM13.7593 29.1806L14.1289 28.6558L12.4937 27.5042L12.1241 28.029L13.7593 29.1806ZM14.1285 28.6563C15.0537 27.3445 16.5406 26.5422 18.0939 26.4972L18.0359 24.498C15.8388 24.5618 13.7738 25.6891 12.4941 27.5037L14.1285 28.6563ZM18.0854 26.4974C19.8596 26.461 21.4327 27.2674 22.4172 28.6892L24.0615 27.5507C22.6908 25.571 20.4815 24.4478 18.0444 24.4978L18.0854 26.4974ZM22.4163 28.688L22.6051 28.9616L24.2512 27.8256L24.0624 27.552L22.4163 28.688ZM22.6098 28.9684C22.8838 29.3585 23.2584 29.5255 23.5644 29.5735L23.8743 27.5977C23.9384 27.6077 24.0107 27.6297 24.082 27.6712C24.1561 27.7143 24.211 27.7683 24.2464 27.8188L22.6098 28.9684ZM23.5189 29.5653C23.8332 29.6296 24.2562 29.5888 24.6341 29.295L23.4062 27.7162C23.5536 27.6016 23.7462 27.5704 23.9197 27.6059L23.5189 29.5653ZM24.6224 29.3039L27.92 26.8159L26.7154 25.2193L23.4178 27.7073L24.6224 29.3039ZM27.9177 26.8176C28.6115 26.2972 28.7028 25.3134 28.2511 24.6591L26.6052 25.7953C26.5333 25.6912 26.5226 25.5878 26.5331 25.5126C26.5434 25.4388 26.586 25.3164 26.7177 25.2176L27.9177 26.8176ZM28.2499 24.6574L27.8339 24.0574L26.1903 25.197L26.6063 25.797L28.2499 24.6574ZM27.8344 24.0581C26.936 22.7601 26.6661 21.0648 27.1196 19.5374L25.2023 18.9682C24.5774 21.0728 24.9443 23.3967 26.1899 25.1963L27.8344 24.0581ZM27.1198 19.5367C27.6155 17.8625 28.8722 16.552 30.4655 16.0187L29.8307 14.1221C27.6001 14.8688 25.8775 16.6879 25.2021 18.9689L27.1198 19.5367ZM30.4686 16.0177L30.7902 15.9089L30.1493 14.0143L29.8277 14.1231L30.4686 16.0177ZM30.7824 15.9115C31.6691 15.6196 31.9462 14.6627 31.7305 13.9665L29.8201 14.5583C29.7936 14.4726 29.7981 14.3793 29.8368 14.2906C29.8753 14.2025 29.9718 14.0727 30.157 14.0117L30.7824 15.9115ZM31.7299 13.9644L30.4707 9.93081L28.5616 10.5268L29.8208 14.5604L31.7299 13.9644ZM30.4703 9.9296C30.3086 9.41397 29.9548 9.15082 29.7321 9.03417L28.8041 10.8058C28.7648 10.7852 28.7142 10.7525 28.6661 10.7013C28.615 10.6469 28.5799 10.5853 28.5619 10.528L30.4703 9.9296ZM29.7271 9.03157C29.3952 8.86006 29.01 8.82629 28.6481 8.94886L29.2897 10.8431C29.1263 10.8985 28.9491 10.8807 28.8091 10.8084L29.7271 9.03157ZM28.6535 8.94704L28.1095 9.12784L28.7403 11.0258L29.2843 10.845L28.6535 8.94704ZM28.1092 9.12795C26.5613 9.64302 24.8511 9.3642 23.5365 8.37528L22.3342 9.97352C24.1716 11.3558 26.5669 11.749 28.7407 11.0256L28.1092 9.12795ZM23.5353 8.3744L23.3625 8.2448L22.1625 9.8448L22.3353 9.9744L23.5353 8.3744ZM23.3636 8.24562C22.1242 7.31343 21.3747 5.79802 21.3801 4.19214L19.3801 4.18546C19.3727 6.40678 20.4056 8.52337 22.1614 9.84398L23.3636 8.24562ZM21.3801 4.19594L21.3833 3.74794L19.3833 3.73366L19.3801 4.18166L21.3801 4.19594ZM21.3833 3.7408C21.3833 3.18226 21.1113 2.80976 20.9288 2.62729L19.5146 4.04151C19.4845 4.01138 19.452 3.97127 19.4261 3.91818C19.3982 3.86071 19.3833 3.79827 19.3833 3.7408H21.3833ZM20.9384 2.63705C20.7736 2.46763 20.434 2.2048 19.9289 2.2048V4.2048C19.6991 4.2048 19.5546 4.08277 19.505 4.03175L20.9384 2.63705ZM19.9301 2.2048L15.8549 2.2L15.8525 4.2L19.9277 4.2048L19.9301 2.2048ZM15.8537 2.2C14.9062 2.2 14.4031 3.04331 14.3993 3.72737L16.3993 3.73823C16.3989 3.81686 16.3718 3.91413 16.2944 4.00484C16.2154 4.09755 16.0633 4.2 15.8537 4.2V2.2ZM14.3993 3.72867L14.3977 4.11587L16.3977 4.12413L16.3993 3.73693L14.3993 3.72867ZM14.3977 4.11588C14.391 5.75605 13.6208 7.31073 12.3561 8.27526L13.5689 9.86554C15.3379 8.51647 16.3885 6.37194 16.3977 4.12411L14.3977 4.11588ZM12.3576 8.27412L12.1512 8.43092L13.3611 10.0235L13.5675 9.86668L12.3576 8.27412ZM12.1509 8.43116C10.7445 9.50046 8.91586 9.79943 7.2628 9.23589L6.61745 11.1289C8.90679 11.9094 11.4302 11.4915 13.3614 10.0232L12.1509 8.43116ZM7.26239 9.23575C6.94102 9.12635 6.58528 9.14232 6.26332 9.31097L7.19133 11.0826C7.1111 11.1247 7.01131 11.1569 6.89837 11.1645C6.78656 11.1721 6.69035 11.1537 6.61786 11.129L7.26239 9.23575ZM6.28011 9.30237C6.04873 9.41806 5.72684 9.6712 5.58274 10.1395L7.4943 10.7277C7.47032 10.8056 7.42549 10.8839 7.36235 10.9517C7.30253 11.0159 7.23629 11.0604 7.17454 11.0912L6.28011 9.30237ZM5.58465 10.1334L4.27745 14.287L6.1852 14.8874L7.4924 10.7338L5.58465 10.1334ZM4.27675 14.2892C4.02721 15.0886 4.43603 15.9677 5.25941 16.2511L5.91044 14.3601C6.14821 14.4419 6.24664 14.6906 6.18589 14.8852L4.27675 14.2892ZM5.26178 16.2519L5.52418 16.3415L6.17047 14.4489L5.90807 14.3593L5.26178 16.2519ZM11.02 30.4659L7.70479 27.9491L6.49546 29.5421L9.81066 32.0589L11.02 30.4659ZM7.70398 27.9485C6.55491 27.078 6.28946 25.3776 7.13549 24.1756L5.49996 23.0244C4.04198 25.096 4.47734 28.0132 6.49627 29.5427L7.70398 27.9485ZM7.13478 24.1766C7.93667 23.0402 8.07813 21.6107 7.63393 20.3064L5.74071 20.9512C6.00052 21.7141 5.89557 22.4638 5.50067 23.0234L7.13478 24.1766ZM7.63769 20.3177L7.54969 20.0489L5.64896 20.6711L5.73696 20.9399L7.63769 20.3177ZM7.55328 20.06C7.17757 18.8652 6.29966 17.8752 5.13443 17.4763L4.48662 19.3685C4.97579 19.536 5.43548 19.9924 5.64537 20.66L7.55328 20.06ZM5.13882 17.4778L4.87642 17.3866L4.21982 19.2758L4.48222 19.367L5.13882 17.4778ZM4.87203 17.3851C3.43936 16.8946 2.67494 15.3837 3.13256 13.9269L1.22449 13.3275C0.443707 15.8131 1.75928 18.4334 4.22422 19.2773L4.87203 17.3851ZM3.13247 13.9272L4.43807 9.77517L2.53017 9.17523L1.22457 13.3272L3.13247 13.9272ZM4.43788 9.77579C4.65464 9.08801 5.1152 8.54592 5.7337 8.23324L4.83135 6.44836C3.72185 7.00928 2.90561 7.98399 2.53037 9.17461L4.43788 9.77579ZM5.73244 8.23387C6.33736 7.92912 7.01366 7.88299 7.65148 8.10131L8.29917 6.20909C7.15139 5.81621 5.91729 5.90128 4.8326 6.44773L5.73244 8.23387ZM7.65294 8.10181C8.93296 8.53774 10.3437 8.29717 11.4237 7.47607L10.2133 5.88393C9.65178 6.31083 8.93449 6.42546 8.29771 6.20859L7.65294 8.10181ZM11.4235 7.47628L11.6299 7.31948L10.42 5.72692L10.2136 5.88372L11.4235 7.47628ZM11.6316 7.31815C12.6186 6.56492 13.1935 5.36299 13.1977 4.11055L11.1977 4.10385C11.1955 4.76181 10.8905 5.36788 10.4182 5.72825L11.6316 7.31815ZM13.1977 4.11135L13.1993 3.72575L11.1993 3.71745L11.1977 4.10305L13.1977 4.11135ZM13.1993 3.72549C13.2053 2.20116 14.4186 1 15.8521 1V-1C13.2761 -1 11.2094 1.13324 11.1993 3.71771L13.1993 3.72549ZM15.8509 0.999999L19.9325 1.0048L19.9349 -0.995199L15.8533 -0.999999L15.8509 0.999999ZM19.9321 1.0048C20.627 1.00595 21.2818 1.27875 21.7809 1.78143L23.2001 0.372167C22.3297 -0.504352 21.1669 -0.993153 19.9354 -0.995199L19.9321 1.0048ZM21.7818 1.78231C22.3002 2.30302 22.5857 2.99875 22.5833 3.75365L24.5833 3.75995C24.5873 2.48285 24.0984 1.27458 23.1992 0.371288L21.7818 1.78231ZM22.5833 3.74963L22.5801 4.19603L24.5801 4.21037L24.5833 3.76397L22.5833 3.74963ZM22.5801 4.19967C22.5759 5.40617 23.1267 6.56616 24.0902 7.28938L25.2908 5.68982C24.856 5.36344 24.578 4.81143 24.5801 4.20673L22.5801 4.19967ZM24.087 7.28691L24.2582 7.41651L25.4653 5.82189L25.2941 5.69229L24.087 7.28691ZM24.2609 7.41857C25.2541 8.16509 26.5536 8.38404 27.7299 7.98975L27.0943 6.09345C26.5522 6.27516 25.9382 6.17731 25.4626 5.81983L24.2609 7.41857ZM27.7283 7.99028L28.2707 7.80948L27.6383 5.91212L27.0959 6.09292L27.7283 7.99028ZM28.2703 7.80965C28.9386 7.58725 29.643 7.6411 30.27 7.96211L31.1815 6.18189C30.0772 5.6165 28.8168 5.51995 27.6388 5.91195L28.2703 7.80965ZM30.2702 7.96222C30.9154 8.29237 31.3935 8.85897 31.6156 9.57355L33.5255 8.98005C33.1459 7.75863 32.3121 6.76044 31.1813 6.18178L30.2702 7.96222ZM31.616 9.57479L32.8752 13.6084L34.7843 13.0124L33.5251 8.9788L31.616 9.57479ZM32.8751 13.6082C33.3259 15.0533 32.5358 16.5911 31.1685 17.0484L31.8029 18.9452C34.234 18.1321 35.5495 15.4651 34.7843 13.0126L32.8751 13.6082ZM31.1695 17.0481L30.8479 17.1553L31.4803 19.0527L31.8019 18.9455L31.1695 17.0481ZM30.8449 17.1563C29.5986 17.5761 28.6463 18.603 28.2692 19.878L30.1871 20.4452C30.3892 19.7618 30.8864 19.2527 31.4833 19.0517L30.8449 17.1563ZM28.2692 19.8779C27.9194 21.06 28.1181 22.3623 28.821 23.375L30.464 22.2346C30.1142 21.7305 30.0056 21.0584 30.187 20.4453L28.2692 19.8779ZM28.8207 23.3746L29.2367 23.9746L30.8803 22.835L30.4643 22.235L28.8207 23.3746ZM29.2362 23.9738C30.0773 25.1896 29.8002 26.9013 28.6439 27.7726L29.8475 29.3698C31.872 27.8443 32.3245 24.9225 30.8809 22.8358L29.2362 23.9738ZM28.6432 27.7731L25.3456 30.2627L26.5507 31.8589L29.8483 29.3693L28.6432 27.7731ZM25.3453 30.2629C24.7701 30.6976 24.0733 30.8704 23.3678 30.758L23.0532 32.7332C24.2966 32.9312 25.5422 32.6208 26.551 31.8587L25.3453 30.2629ZM23.3697 30.7584C22.66 30.6439 22.0399 30.2535 21.618 29.6448L19.9742 30.784C20.7011 31.8329 21.7963 32.5305 23.0513 32.7328L23.3697 30.7584ZM21.6207 29.6487L21.4319 29.3735L19.7827 30.5049L19.9715 30.7801L21.6207 29.6487ZM21.4287 29.3688C20.698 28.3166 19.4879 27.6227 18.156 27.6976L18.2683 29.6944C18.8148 29.6637 19.3966 29.949 19.786 30.5096L21.4287 29.3688ZM18.1849 27.6964C16.9241 27.7307 15.8199 28.3378 15.1094 29.3479L16.7452 30.4985C17.0972 29.9982 17.6186 29.7125 18.2393 29.6956L18.1849 27.6964ZM15.1097 29.3474L14.7401 29.8722L16.3753 31.0238L16.7449 30.499L15.1097 29.3474ZM14.7407 29.8714C14.3154 30.4741 13.6935 30.8594 12.9865 30.9705L13.2969 32.9463C14.5451 32.7502 15.6417 32.0635 16.3748 31.0246L14.7407 29.8714ZM12.9897 30.97C12.8569 30.9905 12.7224 31 12.5849 31V33C12.8155 33 13.0521 32.9839 13.2938 32.9468L12.9897 30.97ZM12.5849 31C12.0278 31 11.485 30.82 11.0211 30.4667L9.80958 32.0581C10.6192 32.6744 11.5869 33 12.5849 33V31ZM14.6028 15.9998C14.6028 17.8753 16.1274 19.3998 18.0028 19.3998V17.3998C17.2319 17.3998 16.6028 16.7708 16.6028 15.9998H14.6028ZM18.0028 19.3998C19.8783 19.3998 21.4028 17.8753 21.4028 15.9998H19.4028C19.4028 16.7708 18.7738 17.3998 18.0028 17.3998V19.3998ZM21.4028 15.9998C21.4028 14.1244 19.8783 12.5998 18.0028 12.5998V14.5998C18.7738 14.5998 19.4028 15.2289 19.4028 15.9998H21.4028ZM18.0028 12.5998C16.1274 12.5998 14.6028 14.1244 14.6028 15.9998H16.6028C16.6028 15.2289 17.2319 14.5998 18.0028 14.5998V12.5998ZM13.4028 15.9998C13.4028 13.4641 15.4671 11.3998 18.0028 11.3998V9.39984C14.3626 9.39984 11.4028 12.3596 11.4028 15.9998H13.4028ZM18.0028 11.3998C20.5386 11.3998 22.6028 13.4641 22.6028 15.9998H24.6028C24.6028 12.3596 21.6431 9.39984 18.0028 9.39984V11.3998ZM22.6028 15.9998C22.6028 18.5356 20.5386 20.5998 18.0028 20.5998V22.5998C21.6431 22.5998 24.6028 19.6401 24.6028 15.9998H22.6028ZM18.0028 20.5998C15.4671 20.5998 13.4028 18.5356 13.4028 15.9998H11.4028C11.4028 19.6401 14.3626 22.5998 18.0028 22.5998V20.5998Z" fill="white" mask="url(#path-1-inside-1_252_836)"/>
</g>
<path d="M30.8196 11.6906C32 16.5 28.2599 15.3253 26.7342 18.5455C24.1808 21.182 30.3089 25.9277 26.2235 28.0369C22.5 30.5 21.6274 25.4004 18.0526 25.9277C14.4778 26.9823 12.9458 30.6735 10.3924 28.0369C6.81765 26.455 10.9031 23.2912 9.37105 19.0728C8.8604 15.3817 3.00001 17.5 5.28563 12.2179C7.41297 7.30163 8.86037 12.2179 12.9458 8.52683C15.7819 5.96452 13.4565 2.19922 18.0526 2.19922C22.8502 2.19922 20.1007 6.74996 23 9C26.2232 11.5014 29.8647 7.79971 30.8196 11.6906Z" fill="white"/>
<mask id="mask0_252_836" style="mask-type:luminance" maskUnits="userSpaceOnUse" x="2" y="0" width="33" height="32">
<mask id="path-4-inside-2_252_836" fill="white">
<path fill-rule="evenodd" clip-rule="evenodd" d="M5.84732 15.3952C7.63292 16.008 9.05532 17.5024 9.65052 19.3968L9.71452 19.5888C10.3961 21.5984 10.1193 23.7616 8.97692 25.384C8.76892 25.6784 8.81532 26.0304 9.03452 26.1968L12.3497 28.7152C12.4665 28.8032 12.5801 28.8032 12.6505 28.7952C12.7305 28.7824 12.8473 28.7392 12.9417 28.6048L13.3113 28.08C14.4137 26.5168 16.1897 25.552 18.0649 25.4976C20.1705 25.4544 22.0617 26.4192 23.2393 28.12L23.4281 28.3936C23.5225 28.528 23.6377 28.5728 23.7193 28.5856C23.7897 28.6 23.9049 28.5952 24.0201 28.5056L27.3177 26.0176C27.5481 25.8448 27.5993 25.4752 27.4281 25.2272L27.0121 24.6272C25.9401 23.0784 25.6217 21.0688 26.1609 19.2528C26.7465 17.2752 28.2361 15.7104 30.1481 15.0704L30.4697 14.9616C30.7273 14.8768 30.8665 14.5568 30.7753 14.2624L29.5161 10.2288C29.4569 10.04 29.3353 9.9552 29.2681 9.92C29.1721 9.8704 29.0681 9.8624 28.9689 9.896L28.4249 10.0768C26.5641 10.696 24.5113 10.36 22.9353 9.1744L22.7625 9.0448C21.2649 7.9184 20.3737 6.1024 20.3801 4.1888L20.3833 3.7408C20.3833 3.528 20.2825 3.3952 20.2217 3.3344C20.1641 3.2752 20.0665 3.2048 19.9289 3.2048L15.8537 3.2C15.6041 3.2 15.4009 3.4384 15.3993 3.7328L15.3977 4.12C15.3897 6.064 14.4793 7.9136 12.9625 9.0704L12.7561 9.2272C11.0873 10.496 8.91132 10.8544 6.94012 10.1824C6.86492 10.1568 6.79452 10.1616 6.72732 10.1968C6.67612 10.2224 6.58332 10.288 6.53852 10.4336L5.23132 14.5872C5.13692 14.8896 5.29212 15.2048 5.58492 15.3056L5.84732 15.3952ZM10.4153 31.2624L7.10012 28.7456C5.51612 27.5456 5.16572 25.2368 6.31772 23.6C6.91612 22.752 7.03932 21.6624 6.68732 20.6288L6.59932 20.36C6.30652 19.4288 5.63772 18.7056 4.81052 18.4224L4.54812 18.3312C2.59932 17.664 1.55932 15.5984 2.17852 13.6272L3.48412 9.4752C3.78012 8.536 4.41852 7.7776 5.28252 7.3408C6.12732 6.9152 7.08252 6.8496 7.97532 7.1552C8.93372 7.4816 9.99772 7.304 10.8185 6.68L11.0249 6.5232C11.7545 5.9664 12.1945 5.0624 12.1977 4.1072L12.1993 3.7216C12.2073 1.6672 13.8473 0 15.8521 0L19.9337 0.0048C20.8969 0.0064 21.8057 0.3872 22.4905 1.0768C23.1993 1.7888 23.5865 2.7408 23.5833 3.7568L23.5801 4.2032C23.5769 5.1088 23.9913 5.9648 24.6905 6.4896L24.8617 6.6192C25.5961 7.1712 26.5529 7.3296 27.4121 7.0416L27.9545 6.8608C28.8777 6.5536 29.8601 6.6288 30.7257 7.072C31.6137 7.5264 32.2697 8.3088 32.5705 9.2768L33.8297 13.3104C34.4377 15.2592 33.3849 17.3616 31.4857 17.9968L31.1641 18.104C30.2425 18.4144 29.5177 19.1824 29.2281 20.1616C28.9625 21.0592 29.1161 22.0464 29.6425 22.8048L30.0585 23.4048C31.2009 25.056 30.8361 27.3728 29.2457 28.5712L25.9481 31.0608C25.1561 31.6592 24.1849 31.9008 23.2105 31.7456C22.2281 31.5872 21.3705 31.0432 20.7961 30.2144L20.6073 29.9392C20.0473 29.1328 19.1513 28.6432 18.2121 28.696C17.2713 28.7216 16.4585 29.168 15.9273 29.9232L15.5577 30.448C14.9785 31.2688 14.1193 31.8048 13.1417 31.9584C12.9545 31.9872 12.7689 32 12.5849 32C11.8073 32 11.0521 31.7472 10.4153 31.2624ZM15.6028 15.9998C15.6028 17.323 16.6796 18.3998 18.0028 18.3998C19.326 18.3998 20.4028 17.323 20.4028 15.9998C20.4028 14.6766 19.326 13.5998 18.0028 13.5998C16.6796 13.5998 15.6028 14.6766 15.6028 15.9998ZM12.4028 15.9998C12.4028 12.9118 14.9148 10.3998 18.0028 10.3998C21.0908 10.3998 23.6028 12.9118 23.6028 15.9998C23.6028 19.0878 21.0908 21.5998 18.0028 21.5998C14.9148 21.5998 12.4028 19.0878 12.4028 15.9998Z"/>
</mask>
<path fill-rule="evenodd" clip-rule="evenodd" d="M5.84732 15.3952C7.63292 16.008 9.05532 17.5024 9.65052 19.3968L9.71452 19.5888C10.3961 21.5984 10.1193 23.7616 8.97692 25.384C8.76892 25.6784 8.81532 26.0304 9.03452 26.1968L12.3497 28.7152C12.4665 28.8032 12.5801 28.8032 12.6505 28.7952C12.7305 28.7824 12.8473 28.7392 12.9417 28.6048L13.3113 28.08C14.4137 26.5168 16.1897 25.552 18.0649 25.4976C20.1705 25.4544 22.0617 26.4192 23.2393 28.12L23.4281 28.3936C23.5225 28.528 23.6377 28.5728 23.7193 28.5856C23.7897 28.6 23.9049 28.5952 24.0201 28.5056L27.3177 26.0176C27.5481 25.8448 27.5993 25.4752 27.4281 25.2272L27.0121 24.6272C25.9401 23.0784 25.6217 21.0688 26.1609 19.2528C26.7465 17.2752 28.2361 15.7104 30.1481 15.0704L30.4697 14.9616C30.7273 14.8768 30.8665 14.5568 30.7753 14.2624L29.5161 10.2288C29.4569 10.04 29.3353 9.9552 29.2681 9.92C29.1721 9.8704 29.0681 9.8624 28.9689 9.896L28.4249 10.0768C26.5641 10.696 24.5113 10.36 22.9353 9.1744L22.7625 9.0448C21.2649 7.9184 20.3737 6.1024 20.3801 4.1888L20.3833 3.7408C20.3833 3.528 20.2825 3.3952 20.2217 3.3344C20.1641 3.2752 20.0665 3.2048 19.9289 3.2048L15.8537 3.2C15.6041 3.2 15.4009 3.4384 15.3993 3.7328L15.3977 4.12C15.3897 6.064 14.4793 7.9136 12.9625 9.0704L12.7561 9.2272C11.0873 10.496 8.91132 10.8544 6.94012 10.1824C6.86492 10.1568 6.79452 10.1616 6.72732 10.1968C6.67612 10.2224 6.58332 10.288 6.53852 10.4336L5.23132 14.5872C5.13692 14.8896 5.29212 15.2048 5.58492 15.3056L5.84732 15.3952ZM10.4153 31.2624L7.10012 28.7456C5.51612 27.5456 5.16572 25.2368 6.31772 23.6C6.91612 22.752 7.03932 21.6624 6.68732 20.6288L6.59932 20.36C6.30652 19.4288 5.63772 18.7056 4.81052 18.4224L4.54812 18.3312C2.59932 17.664 1.55932 15.5984 2.17852 13.6272L3.48412 9.4752C3.78012 8.536 4.41852 7.7776 5.28252 7.3408C6.12732 6.9152 7.08252 6.8496 7.97532 7.1552C8.93372 7.4816 9.99772 7.304 10.8185 6.68L11.0249 6.5232C11.7545 5.9664 12.1945 5.0624 12.1977 4.1072L12.1993 3.7216C12.2073 1.6672 13.8473 0 15.8521 0L19.9337 0.0048C20.8969 0.0064 21.8057 0.3872 22.4905 1.0768C23.1993 1.7888 23.5865 2.7408 23.5833 3.7568L23.5801 4.2032C23.5769 5.1088 23.9913 5.9648 24.6905 6.4896L24.8617 6.6192C25.5961 7.1712 26.5529 7.3296 27.4121 7.0416L27.9545 6.8608C28.8777 6.5536 29.8601 6.6288 30.7257 7.072C31.6137 7.5264 32.2697 8.3088 32.5705 9.2768L33.8297 13.3104C34.4377 15.2592 33.3849 17.3616 31.4857 17.9968L31.1641 18.104C30.2425 18.4144 29.5177 19.1824 29.2281 20.1616C28.9625 21.0592 29.1161 22.0464 29.6425 22.8048L30.0585 23.4048C31.2009 25.056 30.8361 27.3728 29.2457 28.5712L25.9481 31.0608C25.1561 31.6592 24.1849 31.9008 23.2105 31.7456C22.2281 31.5872 21.3705 31.0432 20.7961 30.2144L20.6073 29.9392C20.0473 29.1328 19.1513 28.6432 18.2121 28.696C17.2713 28.7216 16.4585 29.168 15.9273 29.9232L15.5577 30.448C14.9785 31.2688 14.1193 31.8048 13.1417 31.9584C12.9545 31.9872 12.7689 32 12.5849 32C11.8073 32 11.0521 31.7472 10.4153 31.2624ZM15.6028 15.9998C15.6028 17.323 16.6796 18.3998 18.0028 18.3998C19.326 18.3998 20.4028 17.323 20.4028 15.9998C20.4028 14.6766 19.326 13.5998 18.0028 13.5998C16.6796 13.5998 15.6028 14.6766 15.6028 15.9998ZM12.4028 15.9998C12.4028 12.9118 14.9148 10.3998 18.0028 10.3998C21.0908 10.3998 23.6028 12.9118 23.6028 15.9998C23.6028 19.0878 21.0908 21.5998 18.0028 21.5998C14.9148 21.5998 12.4028 19.0878 12.4028 15.9998Z" fill="white"/>
<path d="M5.84732 15.3952L6.33423 13.9764L6.33204 13.9757L5.84732 15.3952ZM9.65052 19.3968L8.21949 19.8464L8.22339 19.8588L8.2275 19.8711L9.65052 19.3968ZM9.71452 19.5888L8.29148 20.0632L8.29401 20.0706L9.71452 19.5888ZM8.97692 25.384L10.202 26.2495L10.2034 26.2476L8.97692 25.384ZM9.03452 26.1968L9.94188 25.0024L9.94148 25.0021L9.03452 26.1968ZM12.3497 28.7152L11.4424 29.9097L11.4471 29.9132L12.3497 28.7152ZM12.6505 28.7952L12.8199 30.2856L12.8538 30.2818L12.8875 30.2764L12.6505 28.7952ZM12.9417 28.6048L11.7153 27.7411L11.7142 27.7426L12.9417 28.6048ZM13.3113 28.08L12.0855 27.2155L12.0849 27.2163L13.3113 28.08ZM18.0649 25.4976L18.0342 23.9979L18.0214 23.9982L18.0649 25.4976ZM23.2393 28.12L24.4739 27.2681L24.4726 27.2661L23.2393 28.12ZM23.4281 28.3936L22.1935 29.2456L22.2006 29.2558L23.4281 28.3936ZM23.7193 28.5856L24.0199 27.116L23.986 27.1091L23.9518 27.1037L23.7193 28.5856ZM24.0201 28.5056L23.1167 27.3082L23.1079 27.3148L23.0992 27.3216L24.0201 28.5056ZM27.3177 26.0176L26.4177 24.8176L26.4143 24.8202L27.3177 26.0176ZM27.4281 25.2272L28.6626 24.375L28.6608 24.3725L27.4281 25.2272ZM27.0121 24.6272L25.7787 25.4809L25.7794 25.4819L27.0121 24.6272ZM26.1609 19.2528L27.5989 19.6798L27.5992 19.6787L26.1609 19.2528ZM30.1481 15.0704L30.6243 16.4928L30.6288 16.4913L30.1481 15.0704ZM30.4697 14.9616L30.0007 13.5368L29.989 13.5407L30.4697 14.9616ZM30.7753 14.2624L32.2082 13.8185L32.2072 13.8154L30.7753 14.2624ZM29.5161 10.2288L30.948 9.78181L30.9474 9.78001L29.5161 10.2288ZM29.2681 9.92L29.9641 8.59123L29.9567 8.58736L29.2681 9.92ZM28.9689 9.896L29.442 11.3195L29.4501 11.3167L28.9689 9.896ZM28.4249 10.0768L27.9518 8.65336L27.9513 8.65353L28.4249 10.0768ZM22.9353 9.1744L23.8371 7.97571L23.8353 7.9744L22.9353 9.1744ZM22.7625 9.0448L21.8609 10.2436L21.8625 10.2448L22.7625 9.0448ZM20.3801 4.1888L18.8801 4.17809L18.8801 4.18378L20.3801 4.1888ZM20.3833 3.7408L21.8833 3.75151V3.7408H20.3833ZM20.2217 3.3344L19.1466 4.38043L19.1538 4.3878L19.1611 4.39506L20.2217 3.3344ZM19.9289 3.2048L19.9272 4.7048H19.9289V3.2048ZM15.8537 3.2L15.8555 1.7H15.8537V3.2ZM15.3993 3.7328L13.8993 3.72465L13.8993 3.7266L15.3993 3.7328ZM15.3977 4.12L13.8977 4.1138V4.11383L15.3977 4.12ZM12.9625 9.0704L13.8699 10.2648L13.8722 10.2631L12.9625 9.0704ZM12.7561 9.2272L11.8487 8.03278L11.8483 8.03313L12.7561 9.2272ZM6.94012 10.1824L7.42413 8.76263L7.42352 8.76242L6.94012 10.1824ZM6.72732 10.1968L7.39814 11.5384L7.4108 11.5321L7.42333 11.5255L6.72732 10.1968ZM6.53852 10.4336L7.96937 10.8839L7.97219 10.8747L6.53852 10.4336ZM5.23132 14.5872L3.8005 14.1369L3.79947 14.1402L5.23132 14.5872ZM5.58492 15.3056L5.09665 16.7239L5.10021 16.7251L5.58492 15.3056ZM10.4153 31.2624L11.3239 30.0689L11.3223 30.0677L10.4153 31.2624ZM7.10012 28.7456L8.00712 27.5509L8.00591 27.55L7.10012 28.7456ZM6.31772 23.6L5.09214 22.7352L5.09108 22.7367L6.31772 23.6ZM6.68732 20.6288L5.26177 21.0955L5.26454 21.1039L5.26741 21.1124L6.68732 20.6288ZM6.59932 20.36L5.16839 20.8099L5.17103 20.8183L5.17377 20.8267L6.59932 20.36ZM4.81052 18.4224L4.31807 19.8393L4.32467 19.8415L4.81052 18.4224ZM4.54812 18.3312L5.04058 16.9143L5.03398 16.9121L4.54812 18.3312ZM2.17852 13.6272L0.7476 13.1772L0.747466 13.1777L2.17852 13.6272ZM3.48412 9.4752L2.05349 9.02432L2.0532 9.02524L3.48412 9.4752ZM5.28252 7.3408L4.60765 6.00119L4.60576 6.00215L5.28252 7.3408ZM7.97532 7.1552L7.48955 8.57437L7.49175 8.57511L7.97532 7.1552ZM10.8185 6.68L9.91113 5.48558L9.91072 5.48589L10.8185 6.68ZM11.0249 6.5232L11.9323 7.71762L11.9349 7.71563L11.0249 6.5232ZM12.1977 4.1072L10.6977 4.10098L10.6977 4.10217L12.1977 4.1072ZM12.1993 3.7216L13.6993 3.72782L13.6993 3.72744L12.1993 3.7216ZM15.8521 0L15.8539 -1.5H15.8521V0ZM19.9337 0.0048L19.9362 -1.4952L19.9355 -1.4952L19.9337 0.0048ZM22.4905 1.0768L21.4262 2.13375L21.4275 2.13507L22.4905 1.0768ZM23.5833 3.7568L25.0833 3.76756L25.0833 3.76152L23.5833 3.7568ZM23.5801 4.2032L22.0802 4.19244L22.0801 4.1979L23.5801 4.2032ZM24.6905 6.4896L25.5959 5.29362L25.591 5.28993L24.6905 6.4896ZM24.8617 6.6192L23.9564 7.81517L23.9605 7.81826L24.8617 6.6192ZM27.4121 7.0416L26.9378 5.61857L26.9354 5.61937L27.4121 7.0416ZM27.9545 6.8608L27.4809 5.43753L27.4802 5.43778L27.9545 6.8608ZM30.7257 7.072L30.0421 8.40716L30.0424 8.40733L30.7257 7.072ZM32.5705 9.2768L31.1381 9.72192L31.1387 9.72379L32.5705 9.2768ZM33.8297 13.3104L35.2617 12.8637L35.2616 12.8634L33.8297 13.3104ZM31.4857 17.9968L31.9601 19.4198L31.9615 19.4193L31.4857 17.9968ZM31.1641 18.104L30.6898 16.681L30.6853 16.6825L31.1641 18.104ZM29.2281 20.1616L30.6665 20.5872L30.6665 20.587L29.2281 20.1616ZM29.6425 22.8048L30.8752 21.9501L30.8748 21.9495L29.6425 22.8048ZM30.0585 23.4048L31.2921 22.5514L31.2912 22.5501L30.0585 23.4048ZM29.2457 28.5712L28.343 27.3732L28.3419 27.3741L29.2457 28.5712ZM25.9481 31.0608L25.0443 29.8637L25.0439 29.864L25.9481 31.0608ZM23.2105 31.7456L22.9717 33.2265L22.9746 33.2269L23.2105 31.7456ZM20.7961 30.2144L19.5592 31.063L19.5633 31.0688L20.7961 30.2144ZM20.6073 29.9392L21.8442 29.0906L21.8394 29.0836L20.6073 29.9392ZM18.2121 28.696L18.2529 30.1954L18.2746 30.1949L18.2963 30.1936L18.2121 28.696ZM15.9273 29.9232L17.1537 30.7869L17.1542 30.7862L15.9273 29.9232ZM15.5577 30.448L16.7833 31.3128L16.7841 31.3117L15.5577 30.448ZM13.1417 31.9584L13.3698 33.441L13.3745 33.4402L13.1417 31.9584ZM5.36041 16.814C6.66981 17.2633 7.75891 18.3805 8.21949 19.8464L11.0816 18.9472C10.3517 16.6243 8.59604 14.7527 6.33423 13.9764L5.36041 16.814ZM8.2275 19.8711L8.2915 20.0631L11.1375 19.1145L11.0735 18.9225L8.2275 19.8711ZM8.29401 20.0706C8.83378 21.662 8.5961 23.3195 7.75047 24.5204L10.2034 26.2476C11.6426 24.2037 11.9585 21.5348 11.135 19.107L8.29401 20.0706ZM7.75184 24.5185C7.18363 25.3227 7.12715 26.6321 8.12756 27.3915L9.94148 25.0021C10.5035 25.4287 10.3542 26.0341 10.202 26.2495L7.75184 24.5185ZM8.12716 27.3912L11.4424 29.9096L13.2571 27.5208L9.94188 25.0024L8.12716 27.3912ZM11.4471 29.9132C11.9881 30.3209 12.5447 30.3169 12.8199 30.2856L12.4812 27.3048C12.5367 27.2985 12.6543 27.2899 12.8019 27.3184C12.9578 27.3485 13.1153 27.4139 13.2523 27.5172L11.4471 29.9132ZM12.8875 30.2764C13.2813 30.2134 13.7959 29.9984 14.1692 29.467L11.7142 27.7426C11.7955 27.627 11.9083 27.5224 12.0454 27.4439C12.1776 27.3682 12.3068 27.3311 12.4135 27.314L12.8875 30.2764ZM14.1681 29.4685L14.5377 28.9437L12.0849 27.2163L11.7153 27.7411L14.1681 29.4685ZM14.5372 28.9445C15.3737 27.7583 16.7161 27.0374 18.1084 26.997L18.0214 23.9982C15.6633 24.0666 13.4538 25.2753 12.0855 27.2155L14.5372 28.9445ZM18.0957 26.9973C19.7041 26.9643 21.1182 27.6915 22.0061 28.9739L24.4726 27.2661C23.0053 25.1469 20.6369 23.9445 18.0342 23.9979L18.0957 26.9973ZM22.0047 28.9719L22.1935 29.2455L24.6627 27.5417L24.4739 27.2681L22.0047 28.9719ZM22.2006 29.2558C22.5644 29.7737 23.0687 30.0019 23.4869 30.0675L23.9518 27.1037C24.0684 27.122 24.2014 27.1621 24.3337 27.2392C24.4702 27.3187 24.5788 27.4221 24.6556 27.5314L22.2006 29.2558ZM23.4187 30.0552C23.855 30.1444 24.4319 30.0857 24.941 29.6896L23.0992 27.3216C23.378 27.1047 23.7245 27.0556 24.0199 27.116L23.4187 30.0552ZM24.9236 29.703L28.2212 27.215L26.4143 24.8202L23.1167 27.3082L24.9236 29.703ZM28.2177 27.2176C29.1432 26.5235 29.2545 25.2325 28.6626 24.375L26.1937 26.0794C26.0431 25.8612 26.0121 25.6289 26.0379 25.4436C26.0634 25.2603 26.1625 25.009 26.4177 24.8176L28.2177 27.2176ZM28.6608 24.3725L28.2448 23.7725L25.7794 25.4819L26.1954 26.0819L28.6608 24.3725ZM28.2455 23.7735C27.4339 22.6009 27.1882 21.0627 27.5989 19.6798L24.723 18.8258C24.0552 21.0749 24.4463 23.5559 25.7787 25.4809L28.2455 23.7735ZM27.5992 19.6787C28.05 18.1561 29.1902 16.9728 30.6242 16.4928L29.672 13.648C27.2821 14.448 25.443 16.3943 24.7227 18.8269L27.5992 19.6787ZM30.6288 16.4913L30.9504 16.3825L29.989 13.5407L29.6674 13.6495L30.6288 16.4913ZM30.9388 16.3864C32.1399 15.991 32.486 14.7156 32.2081 13.8185L29.3425 14.7063C29.2799 14.5041 29.2927 14.2874 29.3785 14.0906C29.464 13.8948 29.6584 13.6495 30.0007 13.5368L30.9388 16.3864ZM32.2072 13.8154L30.948 9.78181L28.0843 10.6758L29.3435 14.7094L32.2072 13.8154ZM30.9474 9.78001C30.7345 9.10095 30.2646 8.74864 29.9641 8.59125L28.5721 11.2487C28.4963 11.209 28.3968 11.145 28.3016 11.0436C28.2019 10.9374 28.1266 10.8107 28.0848 10.6776L30.9474 9.78001ZM29.9567 8.58736C29.5067 8.35489 28.9809 8.30824 28.4877 8.47528L29.4501 11.3167C29.1553 11.4166 28.8375 11.3859 28.5796 11.2526L29.9567 8.58736ZM28.4958 8.47256L27.9518 8.65336L28.898 11.5002L29.442 11.3194L28.4958 8.47256ZM27.9513 8.65353C26.5599 9.11654 25.0209 8.8663 23.8371 7.97572L22.0336 10.3731C24.0017 11.8537 26.5683 12.2755 28.8985 11.5001L27.9513 8.65353ZM23.8353 7.9744L23.6625 7.8448L21.8625 10.2448L22.0353 10.3744L23.8353 7.9744ZM23.6642 7.84603C22.5539 7.01095 21.8753 5.64583 21.8801 4.19382L18.8801 4.18378C18.8722 6.55897 19.976 8.82585 21.8609 10.2436L23.6642 7.84603ZM21.8801 4.19951L21.8833 3.75151L18.8834 3.73009L18.8802 4.17809L21.8801 4.19951ZM21.8833 3.7408C21.8833 3.00939 21.5257 2.51704 21.2824 2.27374L19.1611 4.39506C19.0394 4.27336 18.8833 4.04661 18.8833 3.7408H21.8833ZM21.2968 2.28837C21.0784 2.06385 20.6177 1.7048 19.9289 1.7048V4.7048C19.5153 4.7048 19.2499 4.48655 19.1466 4.38043L21.2968 2.28837ZM19.9307 1.7048L15.8555 1.7L15.852 4.7L19.9272 4.7048L19.9307 1.7048ZM15.8537 1.7C14.5572 1.7 13.9041 2.84576 13.8993 3.72465L16.8993 3.74095C16.8983 3.93249 16.832 4.14499 16.6749 4.32926C16.5152 4.51652 16.2305 4.7 15.8537 4.7V1.7ZM13.8993 3.7266L13.8977 4.1138L16.8977 4.1262L16.8993 3.739L13.8993 3.7266ZM13.8977 4.11383C13.8916 5.60208 13.1915 7.0093 12.0529 7.87769L13.8722 10.2631C15.7671 8.8179 16.8878 6.52592 16.8977 4.12617L13.8977 4.11383ZM12.0551 7.87598L11.8487 8.03278L13.6635 10.4216L13.8699 10.2648L12.0551 7.87598ZM11.8483 8.03313C10.5731 9.00269 8.91813 9.27195 7.42413 8.76263L6.45611 11.6022C8.90452 12.4368 11.6016 11.9893 13.664 10.4213L11.8483 8.03313ZM7.42352 8.76242C6.97907 8.61112 6.48066 8.63268 6.03131 8.86805L7.42333 11.5255C7.28619 11.5974 7.11931 11.6507 6.93219 11.6634C6.74677 11.6759 6.58427 11.6458 6.45673 11.6024L7.42352 8.76242ZM6.0565 8.85516C5.73504 9.01589 5.2986 9.3628 5.10485 9.99247L7.97219 10.8747C7.86805 11.2132 7.61721 11.4289 7.39814 11.5384L6.0565 8.85516ZM5.10771 9.9833L3.80051 14.1369L6.66214 15.0375L7.96934 10.8839L5.10771 9.9833ZM3.79947 14.1402C3.47235 15.1881 4.00799 16.3491 5.09665 16.7239L6.07319 13.8873C6.57626 14.0605 6.8015 14.5911 6.66318 15.0342L3.79947 14.1402ZM5.10021 16.7251L5.36261 16.8147L6.33204 13.9757L6.06964 13.8861L5.10021 16.7251ZM11.3223 30.0677L8.00712 27.5509L6.19313 29.9403L9.50833 32.4571L11.3223 30.0677ZM8.00591 27.55C7.0743 26.8442 6.85133 25.448 7.54437 24.4633L5.09108 22.7367C3.48011 25.0256 3.95795 28.247 6.19434 29.9412L8.00591 27.55ZM7.5433 24.4648C8.44695 23.1843 8.59753 21.5849 8.10724 20.1452L5.26741 21.1124C5.48111 21.7399 5.3853 22.3197 5.09214 22.7352L7.5433 24.4648ZM8.11287 20.1621L8.02487 19.8933L5.17377 20.8267L5.26177 21.0955L8.11287 20.1621ZM8.03025 19.9101C7.61309 18.5834 6.63062 17.4601 5.29638 17.0033L4.32467 19.8415C4.64482 19.9511 4.99995 20.2742 5.16839 20.8099L8.03025 19.9101ZM5.30297 17.0055L5.04057 16.9143L4.05568 19.7481L4.31808 19.8393L5.30297 17.0055ZM5.03398 16.9121C3.85938 16.5099 3.23275 15.2764 3.60958 14.0767L0.747466 13.1777C-0.114102 15.9204 1.33926 18.8181 4.06226 19.7503L5.03398 16.9121ZM3.60945 14.0772L4.91505 9.92515L2.0532 9.02524L0.7476 13.1772L3.60945 14.0772ZM4.91475 9.92608C5.0919 9.36402 5.46354 8.93008 5.95929 8.67945L4.60576 6.00215C3.37351 6.62512 2.46835 7.70798 2.05349 9.02432L4.91475 9.92608ZM5.9574 8.6804C6.44238 8.43608 6.97922 8.39968 7.48955 8.57436L8.46109 5.73604C7.18582 5.29952 5.81227 5.39432 4.60765 6.00119L5.9574 8.6804ZM7.49175 8.57511C8.93257 9.06581 10.5166 8.79376 11.7263 7.87411L9.91072 5.48589C9.47882 5.81424 8.93487 5.89739 8.4589 5.73529L7.49175 8.57511ZM11.7259 7.87442L11.9323 7.71762L10.1175 5.32878L9.91113 5.48558L11.7259 7.87442ZM11.9349 7.71563C13.0506 6.86418 13.693 5.51329 13.6977 4.11223L10.6977 4.10217C10.696 4.61151 10.4584 5.06862 10.1149 5.33077L11.9349 7.71563ZM13.6977 4.11342L13.6993 3.72782L10.6993 3.71538L10.6977 4.10098L13.6977 4.11342ZM13.6993 3.72744C13.7042 2.46815 14.7042 1.5 15.8521 1.5V-1.5C12.9905 -1.5 10.7104 0.866254 10.6993 3.71576L13.6993 3.72744ZM15.8504 1.5L19.932 1.5048L19.9355 -1.4952L15.8539 -1.5L15.8504 1.5ZM19.9312 1.5048C20.492 1.50573 21.0198 1.72453 21.4262 2.13375L23.5549 0.0198506C22.5917 -0.950128 21.3018 -1.49293 19.9362 -1.4952L19.9312 1.5048ZM21.4275 2.13507C21.8506 2.56013 22.0853 3.12773 22.0833 3.75208L25.0833 3.76152C25.0877 2.35387 24.548 1.01747 23.5536 0.0185314L21.4275 2.13507ZM22.0834 3.74604L22.0802 4.19244L25.0801 4.21396L25.0833 3.76756L22.0834 3.74604ZM22.0801 4.1979C22.0753 5.55486 22.6943 6.86684 23.7901 7.68927L25.591 5.28993C25.2883 5.06276 25.0785 4.66274 25.0801 4.2085L22.0801 4.1979ZM23.7852 7.68557L23.9564 7.81517L25.7671 5.42323L25.5959 5.29363L23.7852 7.68557ZM23.9605 7.81826C25.083 8.66203 26.554 8.91126 27.8888 8.46383L26.9354 5.61937C26.5518 5.74794 26.1092 5.68037 25.763 5.42014L23.9605 7.81826ZM27.8865 8.46463L28.4289 8.28382L27.4802 5.43778L26.9378 5.61858L27.8865 8.46463ZM28.4281 8.28407C28.9691 8.10407 29.5345 8.14726 30.0421 8.40716L31.4093 5.73684C30.1858 5.11034 28.7864 5.00313 27.4809 5.43753L28.4281 8.28407ZM30.0424 8.40733C30.5662 8.67535 30.9554 9.13405 31.1381 9.72192L34.003 8.83168C33.584 7.48355 32.6613 6.37745 31.409 5.73667L30.0424 8.40733ZM31.1387 9.72379L32.3979 13.7574L35.2616 12.8634L34.0024 8.82981L31.1387 9.72379ZM32.3978 13.7571C32.77 14.9503 32.1113 16.2059 31.0099 16.5743L31.9615 19.4193C34.6585 18.5173 36.1054 15.5681 35.2617 12.8637L32.3978 13.7571ZM31.0114 16.5738L30.6898 16.681L31.6385 19.527L31.9601 19.4198L31.0114 16.5738ZM30.6853 16.6825C29.2767 17.1569 28.2105 18.3133 27.7897 19.7362L30.6665 20.587C30.8249 20.0515 31.2083 19.6719 31.6429 19.5255L30.6853 16.6825ZM27.7898 19.736C27.3979 21.0605 27.6191 22.5202 28.4103 23.6601L30.8748 21.9495C30.6132 21.5726 30.5272 21.0579 30.6665 20.5872L27.7898 19.736ZM28.4098 23.6595L28.8258 24.2595L31.2912 22.5501L30.8752 21.9501L28.4098 23.6595ZM28.825 24.2582C29.5155 25.2563 29.2822 26.6655 28.343 27.3732L30.1484 29.7692C32.39 28.0801 32.8863 24.8557 31.2921 22.5514L28.825 24.2582ZM28.3419 27.3741L25.0443 29.8637L26.8519 32.2579L30.1495 29.7683L28.3419 27.3741ZM25.0439 29.864C24.577 30.2167 24.0174 30.3552 23.4465 30.2643L22.9746 33.2269C24.3524 33.4464 25.7352 33.1017 26.8524 32.2576L25.0439 29.864ZM23.4493 30.2647C22.8759 30.1723 22.3746 29.8587 22.029 29.36L19.5633 31.0688C20.3664 32.2277 21.5804 33.0021 22.9717 33.2265L23.4493 30.2647ZM22.033 29.3658L21.8442 29.0906L19.3704 30.7878L19.5592 31.063L22.033 29.3658ZM21.8394 29.0836C21.0234 27.9085 19.6561 27.1125 18.1279 27.1984L18.2963 30.1936C18.6465 30.1739 19.0713 30.3571 19.3753 30.7948L21.8394 29.0836ZM18.1713 27.1966C16.7504 27.2352 15.5006 27.9227 14.7004 29.0602L17.1542 30.7862C17.4165 30.4133 17.7922 30.208 18.2529 30.1954L18.1713 27.1966ZM14.7009 29.0595L14.3313 29.5843L16.7841 31.3117L17.1537 30.7869L14.7009 29.0595ZM14.3321 29.5832C13.9838 30.0768 13.4806 30.3868 12.9089 30.4766L13.3745 33.4402C14.758 33.2229 15.9732 32.4608 16.7833 31.3128L14.3321 29.5832ZM12.9136 30.4758C12.8081 30.4921 12.6991 30.5 12.5849 30.5V33.5C12.8388 33.5 13.101 33.4823 13.3698 33.441L12.9136 30.4758ZM12.5849 30.5C12.138 30.5 11.7015 30.3564 11.3239 30.0689L9.50671 32.4559C10.4027 33.1381 11.4766 33.5 12.5849 33.5V30.5ZM14.1028 15.9998C14.1028 18.1515 15.8512 19.8998 18.0028 19.8998V16.8998C17.5081 16.8998 17.1028 16.4946 17.1028 15.9998H14.1028ZM18.0028 19.8998C20.1545 19.8998 21.9028 18.1515 21.9028 15.9998H18.9028C18.9028 16.4946 18.4976 16.8998 18.0028 16.8998V19.8998ZM21.9028 15.9998C21.9028 13.8482 20.1545 12.0998 18.0028 12.0998V15.0998C18.4976 15.0998 18.9028 15.5051 18.9028 15.9998H21.9028ZM18.0028 12.0998C15.8512 12.0998 14.1028 13.8482 14.1028 15.9998H17.1028C17.1028 15.5051 17.5081 15.0998 18.0028 15.0998V12.0998ZM13.9028 15.9998C13.9028 13.7403 15.7433 11.8998 18.0028 11.8998V8.89984C14.0864 8.89984 10.9028 12.0834 10.9028 15.9998H13.9028ZM18.0028 11.8998C20.2624 11.8998 22.1028 13.7403 22.1028 15.9998H25.1028C25.1028 12.0834 21.9193 8.89984 18.0028 8.89984V11.8998ZM22.1028 15.9998C22.1028 18.2594 20.2624 20.0998 18.0028 20.0998V23.0998C21.9193 23.0998 25.1028 19.9163 25.1028 15.9998H22.1028ZM18.0028 20.0998C15.7433 20.0998 13.9028 18.2594 13.9028 15.9998H10.9028C10.9028 19.9163 14.0864 23.0998 18.0028 23.0998V20.0998Z" fill="white" mask="url(#path-4-inside-2_252_836)"/>
</mask>
<g mask="url(#mask0_252_836)">
<circle cx="18" cy="16" r="4.5" stroke="black"/>
</g>
<defs>
<filter id="filter0_d_252_836" x="0" y="0" width="40.002" height="40" filterUnits="userSpaceOnUse" color-interpolation-filters="sRGB">
<feFlood flood-opacity="0" result="BackgroundImageFix"/>
<feColorMatrix in="SourceAlpha" type="matrix" values="0 0 0 0 0 0 0 0 0 0 0 0 0 0 0 0 0 0 127 0" result="hardAlpha"/>
<feOffset dx="2" dy="4"/>
<feGaussianBlur stdDeviation="2"/>
<feComposite in2="hardAlpha" operator="out"/>
<feColorMatrix type="matrix" values="0 0 0 0 0 0 0 0 0 0 0 0 0 0 0 0 0 0 0.35 0"/>
<feBlend mode="normal" in2="BackgroundImageFix" result="effect1_dropShadow_252_836"/>
<feBlend mode="normal" in="SourceGraphic" in2="effect1_dropShadow_252_836" result="shape"/>
</filter>
</defs>
</svg>
