<svg width="31" height="60" viewBox="0 0 31 60" fill="none" xmlns="http://www.w3.org/2000/svg">
<g filter="url(#filter0_d_252_764)">
<path d="M3 19.0137L8.5 13.5137H20L25 19.0137V47.0137C25 49.2228 23.2091 51.0137 21 51.0137H7C4.79086 51.0137 3 49.2228 3 47.0137V19.0137Z" fill="white"/>
</g>
<path d="M5.64755 51.047H5.65111H20.3135C21.6816 51.047 22.9941 50.5061 23.965 49.5423C24.9358 48.5784 25.4861 47.2697 25.4959 45.9017V45.8981V18.7204C25.502 18.6367 25.5013 18.5527 25.4939 18.4691L25.4941 18.4691L25.4927 18.4573C25.4103 17.7239 24.9826 16.9238 24.3279 16.0864C23.6645 15.238 22.7264 14.2991 21.542 13.2839L21.5404 13.2826L21.4594 13.2137H21.8769C22.0263 13.2503 22.1818 13.257 22.3344 13.2332C22.517 13.2048 22.6903 13.1335 22.84 13.0251C22.9897 12.9167 23.1115 12.7744 23.1956 12.6098C23.2796 12.4453 23.3234 12.2631 23.3234 12.0783C23.3234 11.8934 23.2796 11.7112 23.1956 11.5467C23.1115 11.3821 22.9897 11.2398 22.84 11.1314C22.6903 11.023 22.517 10.9517 22.3344 10.9233C22.1819 10.8995 22.0264 10.9063 21.8769 10.9428H17.6239L20.4029 8.354C20.4037 8.35332 20.4044 8.35265 20.4052 8.35197C20.5149 8.25133 20.6037 8.13 20.6663 7.99498C20.7294 7.85901 20.7647 7.71183 20.7703 7.56204C20.7759 7.4123 20.7517 7.2629 20.6989 7.12256C20.6469 6.98435 20.5683 6.85771 20.4676 6.74981C20.3636 6.635 20.237 6.54292 20.0957 6.47941C19.9522 6.41498 19.7969 6.3814 19.6396 6.38086L19.6385 6.38086C19.3487 6.38055 19.07 6.49168 18.8599 6.69119C18.8593 6.69181 18.8586 6.69244 18.8579 6.69307L14.3231 10.9428H4.05911C3.75794 10.9428 3.46916 11.0624 3.25624 11.2754C3.04331 11.4883 2.92367 11.7771 2.92367 12.0783C2.92367 12.3794 3.04331 12.6682 3.25624 12.8812C3.46918 13.0941 3.75796 13.2137 4.05911 13.2137H4.5516L4.47126 13.2824C3.28231 14.2852 2.34142 15.2249 1.67548 16.0849C1.01638 16.936 0.590748 17.7545 0.505389 18.5105L0.504106 18.5219L0.503345 18.5333C0.499293 18.5939 0.498923 18.6548 0.502232 18.7154L0.502219 45.8981L0.502245 45.9017C0.511937 47.2633 1.05715 48.5664 2.01999 49.5293C2.98283 50.4921 4.28592 51.0373 5.64755 51.047ZM2.77316 45.8981L2.77314 45.8948L2.72372 38.502L2.7888 38.5151C2.78893 38.5151 2.78907 38.5151 2.7892 38.5151C3.59708 38.6796 4.41859 38.768 5.24295 38.7792L5.74979 38.7862V38.2793V37.0084V36.5153L5.25676 36.5084C4.41795 36.4967 3.58335 36.3873 2.76987 36.1824L2.769 36.1821L2.74639 36.1765V32.8155L2.81556 32.8294C2.8157 32.8294 2.81583 32.8294 2.81596 32.8294C3.62384 32.9939 4.44533 33.0823 5.26969 33.0935L5.77653 33.1005V32.5936V31.3227V30.8277L5.28161 30.8227C4.44383 30.8142 3.61013 30.7049 2.79847 30.4971L2.79576 30.4965L2.77315 30.4908V18.6737C2.77315 18.6148 2.7952 18.5023 2.87904 18.3259C2.96044 18.1547 3.08582 17.9528 3.25503 17.724C3.5935 17.2663 4.07676 16.7417 4.64085 16.1961C5.76694 15.1069 7.16855 13.9786 8.25018 13.2003C8.25041 13.2002 8.25064 13.2 8.25087 13.1998L8.25954 13.1937H17.772L17.7813 13.2003C17.7813 13.2003 17.7813 13.2003 17.7813 13.2003C18.8661 13.9784 20.2696 15.1069 21.3967 16.1962C21.9611 16.7418 22.4446 17.2663 22.7831 17.724C22.9524 17.9528 23.0778 18.1548 23.1592 18.326C23.243 18.5023 23.2651 18.6148 23.2651 18.6737V27.4394L23.2148 27.4149L23.2135 27.4143C21.3599 26.5181 19.2877 26.1738 17.2439 26.4226C15.2063 26.6706 13.2827 27.4977 11.7009 28.8054C10.7325 29.4932 9.65741 30.0167 8.51877 30.3551L8.16119 30.4613V30.8344V32.1722V32.821L8.78857 32.6557C10.336 32.248 11.7966 31.5625 13.099 30.6326L13.1133 30.6223L13.1269 30.6111C14.6455 29.3566 16.547 28.6583 18.5166 28.632C20.1834 28.638 21.812 29.1323 23.2011 30.0537L23.2852 30.1095V33.1318L23.2348 33.1073L23.2336 33.1067C21.38 32.2104 19.3077 31.8662 17.2639 32.115C15.2263 32.363 13.3027 33.1901 11.721 34.4978C10.7526 35.1856 9.67747 35.7091 8.53883 36.0475L8.18125 36.1537V36.5267V37.8646V38.5134L8.80864 38.3481C10.3561 37.9404 11.8166 37.2549 13.119 36.325L13.1333 36.3147L13.1469 36.3035C14.6655 35.049 16.5671 34.3507 18.5366 34.3244C20.2062 34.3311 21.8371 34.8276 23.2273 35.7524L23.3119 35.8087V45.895C23.3022 46.6521 22.9952 47.3751 22.4571 47.9079C21.9183 48.4413 21.1912 48.7412 20.433 48.7426L5.65111 48.7426L5.64611 48.7427C5.27018 48.7464 4.89723 48.6756 4.54883 48.5344C4.20041 48.3931 3.88347 48.1842 3.61631 47.9197C3.34916 47.6551 3.13708 47.3403 2.99235 46.9933C2.84763 46.6463 2.77313 46.2741 2.77316 45.8981Z" fill="black" stroke="white"/>
<path d="M11.6646 3.18594C12.4025 3.18594 13.0007 2.58773 13.0007 1.8498C13.0007 1.11188 12.4025 0.513672 11.6646 0.513672C10.9266 0.513672 10.3284 1.11188 10.3284 1.8498C10.3284 2.58773 10.9266 3.18594 11.6646 3.18594Z" fill="white" stroke="black"/>
<path d="M7.87501 6.69459C8.10573 6.84875 8.377 6.93104 8.65449 6.93104C8.83876 6.93104 9.02119 6.89474 9.19139 6.82424C9.36161 6.75374 9.51629 6.65039 9.64658 6.5201C9.77686 6.38982 9.8802 6.23516 9.95071 6.06494C10.0212 5.89469 10.0575 5.71224 10.0575 5.52802C10.0575 5.25053 9.97522 4.97928 9.82105 4.74854C9.66689 4.51782 9.44776 4.33799 9.19139 4.23179C8.93501 4.1256 8.65291 4.09783 8.38076 4.15196C8.10861 4.2061 7.85861 4.33971 7.66239 4.53593C7.46616 4.73217 7.33256 4.98217 7.27843 5.25431C7.22429 5.52645 7.25206 5.80856 7.35826 6.06494C7.46446 6.32132 7.6443 6.54043 7.87501 6.69459Z" fill="white" stroke="black"/>
<path d="M12.6813 8.70398C13.5116 8.70398 14.1847 8.03091 14.1847 7.20062C14.1847 6.37034 13.5116 5.69727 12.6813 5.69727C11.8511 5.69727 11.178 6.37034 11.178 7.20062C11.178 8.03091 11.8511 8.70398 12.6813 8.70398Z" fill="white" stroke="black"/>
<defs>
<filter id="filter0_d_252_764" x="1" y="13.5137" width="30" height="45.5" filterUnits="userSpaceOnUse" color-interpolation-filters="sRGB">
<feFlood flood-opacity="0" result="BackgroundImageFix"/>
<feColorMatrix in="SourceAlpha" type="matrix" values="0 0 0 0 0 0 0 0 0 0 0 0 0 0 0 0 0 0 127 0" result="hardAlpha"/>
<feOffset dx="2" dy="4"/>
<feGaussianBlur stdDeviation="2"/>
<feComposite in2="hardAlpha" operator="out"/>
<feColorMatrix type="matrix" values="0 0 0 0 0 0 0 0 0 0 0 0 0 0 0 0 0 0 0.35 0"/>
<feBlend mode="normal" in2="BackgroundImageFix" result="effect1_dropShadow_252_764"/>
<feBlend mode="normal" in="SourceGraphic" in2="effect1_dropShadow_252_764" result="shape"/>
</filter>
</defs>
</svg>
