<svg width="100%" height="100%" viewBox="0 0 115 60" fill="none" xmlns="http://www.w3.org/2000/svg">
<mask id="path-1-inside-1_206_2313" fill="white">
<path fill-rule="evenodd" clip-rule="evenodd" d="M45.9991 15.9802L59.723 0L56.6806 13.0995L57.0494 13L60.023 13.802L62.5703 4.24977L66.7795 15.6241L114.099 28.3857H71.502L72.3853 30.7725L72.0499 31.6417H114.099L67.1664 44.299L62.5703 56.2113L59.5878 46.3429L57.0498 47.0273L56.6873 46.9296L59.723 60L46.0295 44.0553L0.000411987 31.6417H35.3686L33.9587 30L35.3451 28.3857H0L45.9991 15.9802ZM53.1303 28.3857L52.7554 30L53.1366 31.6417H55.2658L56.1341 28.3857H53.1303Z"/>
</mask>
<path fill-rule="evenodd" clip-rule="evenodd" d="M45.9991 15.9802L59.723 0L56.6806 13.0995L57.0494 13L60.023 13.802L62.5703 4.24977L66.7795 15.6241L114.099 28.3857H71.502L72.3853 30.7725L72.0499 31.6417H114.099L67.1664 44.299L62.5703 56.2113L59.5878 46.3429L57.0498 47.0273L56.6873 46.9296L59.723 60L46.0295 44.0553L0.000411987 31.6417H35.3686L33.9587 30L35.3451 28.3857H0L45.9991 15.9802ZM53.1303 28.3857L52.7554 30L53.1366 31.6417H55.2658L56.1341 28.3857H53.1303Z" fill="#8F8E8A"/>
<path d="M59.723 0L60.3074 0.13574L59.2678 -0.390912L59.723 0ZM45.9991 15.9802L46.1553 16.5595L46.3338 16.5113L46.4543 16.3711L45.9991 15.9802ZM56.6806 13.0995L56.0961 12.9637L55.8695 13.9397L56.8368 13.6788L56.6806 13.0995ZM57.0494 13L57.2056 12.4207L57.0494 12.3786L56.8932 12.4207L57.0494 13ZM60.023 13.802L59.8668 14.3813L60.4478 14.5379L60.6028 13.9566L60.023 13.802ZM62.5703 4.24977L63.133 4.04154L62.4773 2.26974L61.9906 4.09517L62.5703 4.24977ZM66.7795 15.6241L66.2168 15.8323L66.3242 16.1228L66.6232 16.2034L66.7795 15.6241ZM114.099 28.3857V28.9857L114.255 27.8064L114.099 28.3857ZM71.502 28.3857V27.7857H70.6402L70.9393 28.5939L71.502 28.3857ZM72.3853 30.7725L72.945 30.9885L73.0267 30.7769L72.948 30.5643L72.3853 30.7725ZM72.0499 31.6417L71.4901 31.4257L71.1753 32.2417H72.0499V31.6417ZM114.099 31.6417L114.255 32.221L114.099 31.0417V31.6417ZM67.1664 44.299L67.0101 43.7197L66.7162 43.799L66.6066 44.083L67.1664 44.299ZM62.5703 56.2113L61.996 56.3849L62.5013 58.057L63.1301 56.4273L62.5703 56.2113ZM59.5878 46.3429L60.1622 46.1693L59.9937 45.612L59.4316 45.7636L59.5878 46.3429ZM57.0498 47.0273L56.8936 47.6066L57.0498 47.6488L57.2061 47.6066L57.0498 47.0273ZM56.6873 46.9296L56.8436 46.3503L55.8762 46.0894L56.1029 47.0653L56.6873 46.9296ZM59.723 60L59.2678 60.3909L60.3074 59.8643L59.723 60ZM46.0295 44.0553L46.4847 43.6644L46.3643 43.5241L46.1858 43.476L46.0295 44.0553ZM0.000411987 31.6417V31.0417L-0.15582 32.221L0.000411987 31.6417ZM35.3686 31.6417V32.2417H36.6748L35.8238 31.2508L35.3686 31.6417ZM33.9587 30L33.5036 29.6091L33.1678 30L33.5036 30.3909L33.9587 30ZM35.3451 28.3857L35.8003 28.7766L36.6513 27.7857H35.3451V28.3857ZM0 28.3857L-0.156232 27.8064L0 28.9857V28.3857ZM52.7554 30L52.1709 29.8643L52.1394 30L52.1709 30.1357L52.7554 30ZM53.1303 28.3857V27.7857H52.6537L52.5459 28.2499L53.1303 28.3857ZM53.1366 31.6417L52.5522 31.7774L52.66 32.2417H53.1366V31.6417ZM55.2658 31.6417V32.2417H55.7268L55.8455 31.7963L55.2658 31.6417ZM56.1341 28.3857L56.7138 28.5403L56.915 27.7857H56.1341V28.3857ZM59.2678 -0.390912L45.5439 15.5893L46.4543 16.3711L60.1782 0.390912L59.2678 -0.390912ZM57.265 13.2352L60.3074 0.13574L59.1385 -0.13574L56.0961 12.9637L57.265 13.2352ZM56.8932 12.4207L56.5244 12.5202L56.8368 13.6788L57.2056 13.5793L56.8932 12.4207ZM60.1793 13.2227L57.2056 12.4207L56.8932 13.5793L59.8668 14.3813L60.1793 13.2227ZM61.9906 4.09517L59.4433 13.6474L60.6028 13.9566L63.15 4.40437L61.9906 4.09517ZM67.3422 15.4159L63.133 4.04154L62.0076 4.45801L66.2168 15.8323L67.3422 15.4159ZM114.255 27.8064L66.9357 15.0448L66.6232 16.2034L113.943 28.965L114.255 27.8064ZM71.502 28.9857H114.099V27.7857H71.502V28.9857ZM72.948 30.5643L72.0647 28.1774L70.9393 28.5939L71.8225 30.9808L72.948 30.5643ZM72.6097 31.8576L72.945 30.9885L71.8255 30.5565L71.4901 31.4257L72.6097 31.8576ZM114.099 31.0417H72.0499V32.2417H114.099V31.0417ZM67.3226 44.8783L114.255 32.221L113.943 31.0624L67.0101 43.7197L67.3226 44.8783ZM63.1301 56.4273L67.7262 44.515L66.6066 44.083L62.0105 55.9953L63.1301 56.4273ZM59.0135 46.5164L61.996 56.3849L63.1446 56.0377L60.1622 46.1693L59.0135 46.5164ZM57.2061 47.6066L59.7441 46.9222L59.4316 45.7636L56.8936 46.448L57.2061 47.6066ZM56.5311 47.5089L56.8936 47.6066L57.2061 46.448L56.8436 46.3503L56.5311 47.5089ZM60.3074 59.8643L57.2718 46.7938L56.1029 47.0653L59.1385 60.1357L60.3074 59.8643ZM45.5744 44.4462L59.2678 60.3909L60.1782 59.6091L46.4847 43.6644L45.5744 44.4462ZM-0.15582 32.221L45.8733 44.6346L46.1858 43.476L0.156644 31.0624L-0.15582 32.221ZM35.3686 31.0417H0.000411987V32.2417H35.3686V31.0417ZM33.5036 30.3909L34.9134 32.0326L35.8238 31.2508L34.4139 29.6091L33.5036 30.3909ZM34.89 27.9948L33.5036 29.6091L34.4139 30.3909L35.8003 28.7766L34.89 27.9948ZM0 28.9857H35.3451V27.7857H0V28.9857ZM45.8429 15.4009L-0.156232 27.8064L0.156232 28.965L46.1553 16.5595L45.8429 15.4009ZM53.3398 30.1357L53.7147 28.5214L52.5459 28.2499L52.1709 29.8643L53.3398 30.1357ZM53.7211 31.5059L53.3398 29.8643L52.1709 30.1357L52.5522 31.7774L53.7211 31.5059ZM55.2658 31.0417H53.1366V32.2417H55.2658V31.0417ZM55.5543 28.2311L54.6861 31.4871L55.8455 31.7963L56.7138 28.5403L55.5543 28.2311ZM53.1303 28.9857H56.1341V27.7857H53.1303V28.9857Z" fill="white" mask="url(#path-1-inside-1_206_2313)"/>
</svg>
