<?xml version="1.0" encoding="UTF-8"?>
<svg id="Layer_2" data-name="Layer 2" xmlns="http://www.w3.org/2000/svg" viewBox="0 0 173.2 66.41">
  <defs>
    <style>
      .cls-1 {
        fill: #f7f6f2;
      }

      .cls-2 {
        fill: #fff;
      }

      .cls-3, .cls-4 {
        fill: #8f8e8a;
      }

      .cls-5 {
        fill: #7a5a5a;
      }

      .cls-4 {
        stroke-width: 3px;
      }

      .cls-4, .cls-6 {
        stroke: #7a5a5a;
      }

      .cls-6 {
        fill: none;
        stroke-width: 1.5px;
      }
    </style>
  </defs>
  <g id="Layer_1-2" data-name="Layer 1">
    <g>
      <path class="cls-1" d="m86.84,60.16c-.15.08-.33.08-.48,0L1.69,13.23c-.45-.25-.27-.94.24-.94h169.34c.52,0,.69.69.24.94l-84.67,46.93Z"/>
      <path class="cls-6" d="m170.3,13.04l-83.7,46.39L2.9,13.04h167.4Z"/>
    </g>
    <g>
      <path class="cls-5" d="m86.39,60.09c-.17.12-.4.12-.57,0L5.57,4.2c-.4-.28-.2-.91.29-.91h160.49c.49,0,.69.63.29.91l-80.25,55.89Z"/>
      <path class="cls-6" d="m165.55,4.04l-79.45,55.34L6.65,4.04h158.9Z"/>
    </g>
    <g>
      <path class="cls-3" d="m86.47,61.73c-.2.21-.53.21-.73,0L28.44.84c-.3-.32-.07-.84.36-.84h114.6c.44,0,.66.52.36.84l-57.3,60.89Z"/>
      <path class="cls-6" d="m142.82.75l-56.72,60.27L29.38.75h113.44Z"/>
    </g>
    <g>
      <path class="cls-2" d="m86.84,66.17c-.15.08-.32.08-.47,0l-23.97-12.85c-.38-.21-.34-.77.07-.91l23.97-8.43c.11-.04.22-.04.33,0l23.97,8.43c.41.14.45.71.07.91l-23.97,12.85Z"/>
      <path class="cls-6" d="m109.95,52.92l-23.35,12.52-23.35-12.52,23.35-8.21,23.35,8.21Z"/>
    </g>
    <path class="cls-4" d="m85.87,64.29l.73.41.73-.41,17.07-9.51,2.86-1.59-3.08-1.12-17.07-6.24-.51-.19-.51.19-17.07,6.24-3.08,1.12,2.86,1.59,17.07,9.51Z"/>
  </g>
</svg>