<svg width="100%" height="100%" viewBox="0 0 291 96" fill="none" xmlns="http://www.w3.org/2000/svg">
<mask id="path-1-outside-1_68_1155" maskUnits="userSpaceOnUse" x="0" y="0" width="291" height="96" fill="black">
<rect fill="white" width="291" height="96"/>
<path fill-rule="evenodd" clip-rule="evenodd" d="M288.971 94C288.99 93.3881 289 92.7748 289 92.16C289 42.366 224.753 2 145.5 2C66.2471 2 2 42.366 2 92.16C2 92.7748 2.00979 93.3881 2.02929 94H288.971Z"/>
</mask>
<path fill-rule="evenodd" clip-rule="evenodd" d="M288.971 94C288.99 93.3881 289 92.7748 289 92.16C289 42.366 224.753 2 145.5 2C66.2471 2 2 42.366 2 92.16C2 92.7748 2.00979 93.3881 2.02929 94H288.971Z" fill="#F7F5F0"/>
<path d="M288.971 94V95.5H290.424L290.47 94.0478L288.971 94ZM2.02929 94L0.53005 94.0478L0.576321 95.5H2.02929V94ZM287.5 92.16C287.5 92.7589 287.49 93.3563 287.471 93.9522L290.47 94.0478C290.49 93.42 290.5 92.7907 290.5 92.16H287.5ZM145.5 3.5C184.889 3.5 220.478 13.534 246.172 29.6774C271.886 45.8334 287.5 67.963 287.5 92.16H290.5C290.5 66.563 273.99 43.6126 247.768 27.1371C221.525 10.649 185.364 0.5 145.5 0.5V3.5ZM3.5 92.16C3.5 67.963 19.114 45.8334 44.8282 29.6774C70.5223 13.534 106.111 3.5 145.5 3.5V0.5C105.636 0.5 69.4749 10.649 43.2322 27.1371C17.0096 43.6126 0.5 66.563 0.5 92.16H3.5ZM3.52853 93.9522C3.50954 93.3563 3.5 92.7589 3.5 92.16H0.5C0.5 92.7907 0.510048 93.42 0.53005 94.0478L3.52853 93.9522ZM2.02929 95.5H288.971V92.5H2.02929V95.5Z" fill="#7A5A5A" mask="url(#path-1-outside-1_68_1155)"/>
<mask id="mask0_68_1155" style="mask-type:alpha" maskUnits="userSpaceOnUse" x="2" y="2" width="287" height="92">
<mask id="path-3-inside-2_68_1155" fill="white">
<path fill-rule="evenodd" clip-rule="evenodd" d="M288.971 94C288.99 93.3881 289 92.7748 289 92.16C289 42.366 224.753 2 145.5 2C66.2471 2 2 42.366 2 92.16C2 92.7748 2.00979 93.3881 2.02929 94H288.971Z"/>
</mask>
<path fill-rule="evenodd" clip-rule="evenodd" d="M288.971 94C288.99 93.3881 289 92.7748 289 92.16C289 42.366 224.753 2 145.5 2C66.2471 2 2 42.366 2 92.16C2 92.7748 2.00979 93.3881 2.02929 94H288.971Z" fill="white"/>
<path d="M288.971 94V95.5H290.424L290.47 94.0478L288.971 94ZM2.02929 94L0.53005 94.0478L0.576321 95.5H2.02929V94ZM287.5 92.16C287.5 92.7589 287.49 93.3563 287.471 93.9522L290.47 94.0478C290.49 93.42 290.5 92.7907 290.5 92.16H287.5ZM145.5 3.5C184.889 3.5 220.478 13.534 246.172 29.6774C271.886 45.8334 287.5 67.963 287.5 92.16H290.5C290.5 66.563 273.99 43.6126 247.768 27.1371C221.525 10.649 185.364 0.5 145.5 0.5V3.5ZM3.5 92.16C3.5 67.963 19.114 45.8334 44.8282 29.6774C70.5223 13.534 106.111 3.5 145.5 3.5V0.5C105.636 0.5 69.4749 10.649 43.2322 27.1371C17.0096 43.6126 0.5 66.563 0.5 92.16H3.5ZM3.52853 93.9522C3.50954 93.3563 3.5 92.7589 3.5 92.16H0.5C0.5 92.7907 0.510048 93.42 0.53005 94.0478L3.52853 93.9522ZM2.02929 95.5H288.971V92.5H2.02929V95.5Z" fill="#7A5A5A" mask="url(#path-3-inside-2_68_1155)"/>
</mask>
<g mask="url(#mask0_68_1155)">
<path d="M299.875 -7.34334L146 126.117L-7.87521 -7.34334L299.875 -7.34334Z" fill="white" stroke="#7A5A5A" stroke-width="1.5"/>
<path d="M283.618 -29.7217L146 125.977L8.38239 -29.7217L283.618 -29.7217Z" fill="white" stroke="#7A5A5A" stroke-width="1.5"/>
<path d="M244.202 -35.7898L145 126.133L45.7982 -35.7898H244.202Z" fill="#F7F5F0" stroke="#7A5A5A" stroke-width="1.5"/>
<path fill-rule="evenodd" clip-rule="evenodd" d="M183.56 98.9716C183.565 98.8229 183.568 98.6739 183.568 98.5246C183.568 86.4125 166.203 76.5938 144.784 76.5938C123.364 76.5938 106 86.4125 106 98.5246C106 98.6739 106.003 98.8229 106.008 98.9716H183.56Z" fill="white"/>
<mask id="path-9-inside-3_68_1155" fill="white">
<path fill-rule="evenodd" clip-rule="evenodd" d="M183.56 105.189C183.565 105.024 183.568 104.858 183.568 104.692C183.568 91.234 166.203 80.3242 144.784 80.3242C123.364 80.3242 106 91.234 106 104.692C106 104.858 106.003 105.024 106.008 105.189H183.56Z"/>
</mask>
<path fill-rule="evenodd" clip-rule="evenodd" d="M183.56 105.189C183.565 105.024 183.568 104.858 183.568 104.692C183.568 91.234 166.203 80.3242 144.784 80.3242C123.364 80.3242 106 91.234 106 104.692C106 104.858 106.003 105.024 106.008 105.189H183.56Z" fill="white"/>
<path d="M183.56 105.189V106.689H185.013L185.059 105.237L183.56 105.189ZM106.008 105.189L104.509 105.237L104.555 106.689H106.008V105.189ZM182.068 104.692C182.068 104.842 182.065 104.992 182.06 105.141L185.059 105.237C185.065 105.055 185.068 104.874 185.068 104.692H182.068ZM144.784 81.8242C155.256 81.8242 164.666 84.4941 171.41 88.7314C178.174 92.9814 182.068 98.6629 182.068 104.692H185.068C185.068 97.2629 180.279 90.7606 173.006 86.1912C165.713 81.6092 155.731 78.8242 144.784 78.8242V81.8242ZM107.5 104.692C107.5 98.6629 111.393 92.9814 118.158 88.7314C124.902 84.4941 134.312 81.8242 144.784 81.8242V78.8242C133.836 78.8242 123.854 81.6092 116.562 86.1912C109.289 90.7606 104.5 97.2629 104.5 104.692H107.5ZM107.507 105.141C107.502 104.992 107.5 104.842 107.5 104.692H104.5C104.5 104.874 104.503 105.055 104.509 105.237L107.507 105.141ZM106.008 106.689H183.56V103.689H106.008V106.689Z" fill="#7A5A5A" mask="url(#path-9-inside-3_68_1155)"/>
<mask id="path-11-outside-4_68_1155" maskUnits="userSpaceOnUse" x="0" y="0" width="291" height="96" fill="black">
<rect fill="white" width="291" height="96"/>
<path fill-rule="evenodd" clip-rule="evenodd" d="M288.971 94C288.99 93.3881 289 92.7748 289 92.16C289 42.366 224.753 2 145.5 2C66.2471 2 2 42.366 2 92.16C2 92.7748 2.00979 93.3881 2.02929 94H288.971Z"/>
</mask>
<g filter="url(#filter0_i_68_1155)">
<path fill-rule="evenodd" clip-rule="evenodd" d="M288.971 94C288.99 93.3881 289 92.7748 289 92.16C289 42.366 224.753 2 145.5 2C66.2471 2 2 42.366 2 92.16C2 92.7748 2.00979 93.3881 2.02929 94H288.971Z" fill="white" fill-opacity="0.01"/>
</g>
<path d="M288.971 94V95.5H290.424L290.47 94.0478L288.971 94ZM2.02929 94L0.53005 94.0478L0.576321 95.5H2.02929V94ZM287.5 92.16C287.5 92.7589 287.49 93.3563 287.471 93.9522L290.47 94.0478C290.49 93.42 290.5 92.7907 290.5 92.16H287.5ZM145.5 3.5C184.889 3.5 220.478 13.534 246.172 29.6774C271.886 45.8334 287.5 67.963 287.5 92.16H290.5C290.5 66.563 273.99 43.6126 247.768 27.1371C221.525 10.649 185.364 0.5 145.5 0.5V3.5ZM3.5 92.16C3.5 67.963 19.114 45.8334 44.8282 29.6774C70.5223 13.534 106.111 3.5 145.5 3.5V0.5C105.636 0.5 69.4749 10.649 43.2322 27.1371C17.0096 43.6126 0.5 66.563 0.5 92.16H3.5ZM3.52853 93.9522C3.50954 93.3563 3.5 92.7589 3.5 92.16H0.5C0.5 92.7907 0.510048 93.42 0.53005 94.0478L3.52853 93.9522ZM2.02929 95.5H288.971V92.5H2.02929V95.5Z" fill="#7A5A5A" mask="url(#path-11-outside-4_68_1155)"/>
</g>
<defs>
<filter id="filter0_i_68_1155" x="0.5" y="0.5" width="290" height="99" filterUnits="userSpaceOnUse" color-interpolation-filters="sRGB">
<feFlood flood-opacity="0" result="BackgroundImageFix"/>
<feBlend mode="normal" in="SourceGraphic" in2="BackgroundImageFix" result="shape"/>
<feColorMatrix in="SourceAlpha" type="matrix" values="0 0 0 0 0 0 0 0 0 0 0 0 0 0 0 0 0 0 127 0" result="hardAlpha"/>
<feOffset dy="4"/>
<feGaussianBlur stdDeviation="4"/>
<feComposite in2="hardAlpha" operator="arithmetic" k2="-1" k3="1"/>
<feColorMatrix type="matrix" values="0 0 0 0 0 0 0 0 0 0 0 0 0 0 0 0 0 0 0.35 0"/>
<feBlend mode="normal" in2="shape" result="effect1_innerShadow_68_1155"/>
</filter>
</defs>
</svg>
