<svg width="100%" height="100%" viewBox="0 0 180 57" fill="none" xmlns="http://www.w3.org/2000/svg">
<mask id="path-1-inside-1_205_2239" fill="white">
<path fill-rule="evenodd" clip-rule="evenodd" d="M82.0415 7.0222L89.2865 0.0957031V5.26842L90 5.0957L90.8107 5.29195V0.0972443L98.0864 7.05318L180 26.882H118.827L120.097 28.0965L118.828 29.3094H180L98.0885 49.1378L90.8107 56.0957V50.8995L90.0002 51.0957L89.2865 50.9229V56.0942L82.0436 49.1696L0.000248909 29.3094H61.2703L60 28.0949L61.2687 26.882H0L82.0415 7.0222ZM89.2865 26.882V29.3094H90.8107V26.882H89.2865Z"/>
</mask>
<path fill-rule="evenodd" clip-rule="evenodd" d="M82.0415 7.0222L89.2865 0.0957031V5.26842L90 5.0957L90.8107 5.29195V0.0972443L98.0864 7.05318L180 26.882H118.827L120.097 28.0965L118.828 29.3094H180L98.0885 49.1378L90.8107 56.0957V50.8995L90.0002 51.0957L89.2865 50.9229V56.0942L82.0436 49.1696L0.000248909 29.3094H61.2703L60 28.0949L61.2687 26.882H0L82.0415 7.0222ZM89.2865 26.882V29.3094H90.8107V26.882H89.2865Z" fill="#8F8E8A"/>
<path d="M89.2865 0.0957031H89.7865V-1.07406L88.941 -0.265704L89.2865 0.0957031ZM82.0415 7.0222L82.1592 7.50816L82.2899 7.47653L82.3871 7.38361L82.0415 7.0222ZM89.2865 5.26842H88.7865V5.90389L89.4041 5.75438L89.2865 5.26842ZM90 5.0957L90.1176 4.60974L90 4.58126L89.8823 4.60974L90 5.0957ZM90.8107 5.29195L90.693 5.77791L91.3107 5.92742V5.29195H90.8107ZM90.8107 0.0972443L91.1562 -0.264162L90.3107 -1.07252V0.0972443H90.8107ZM98.0864 7.05318L97.7409 7.41459L97.8381 7.50751L97.9688 7.53915L98.0864 7.05318ZM180 26.882V27.382L180.118 26.396L180 26.882ZM118.827 26.882V26.382H117.58L118.481 27.2434L118.827 26.882ZM120.097 28.0965L120.443 28.4579L120.821 28.0965L120.443 27.7351L120.097 28.0965ZM118.828 29.3094L118.483 28.948L117.582 29.8094H118.828V29.3094ZM180 29.3094L180.118 29.7954L180 28.8094V29.3094ZM98.0885 49.1378L97.9709 48.6518L97.8402 48.6835L97.743 48.7764L98.0885 49.1378ZM90.8107 56.0957H90.3107V57.2655L91.1562 56.4571L90.8107 56.0957ZM90.8107 50.8995H91.3107V50.264L90.693 50.4136L90.8107 50.8995ZM90.0002 51.0957L89.8826 51.5817L90.0002 51.6101L90.1179 51.5817L90.0002 51.0957ZM89.2865 50.9229L89.4041 50.437L88.7865 50.2875V50.9229H89.2865ZM89.2865 56.0942L88.941 56.4556L89.7865 57.2639V56.0942H89.2865ZM82.0436 49.1696L82.3891 48.8082L82.2919 48.7153L82.1613 48.6837L82.0436 49.1696ZM0.000248909 29.3094V28.8094L-0.117388 29.7954L0.000248909 29.3094ZM61.2703 29.3094V29.8094H62.5169L61.6159 28.948L61.2703 29.3094ZM60 28.0949L59.6545 27.7335L59.2765 28.0949L59.6545 28.4563L60 28.0949ZM61.2687 26.882L61.6143 27.2434L62.5153 26.382H61.2687V26.882ZM0 26.882L-0.117637 26.396L0 27.382V26.882ZM89.2865 29.3094H88.7865V29.8094H89.2865V29.3094ZM89.2865 26.882V26.382H88.7865V26.882H89.2865ZM90.8107 29.3094V29.8094H91.3107V29.3094H90.8107ZM90.8107 26.882H91.3107V26.382H90.8107V26.882ZM88.941 -0.265704L81.696 6.66079L82.3871 7.38361L89.632 0.45711L88.941 -0.265704ZM89.7865 5.26842V0.0957031H88.7865V5.26842H89.7865ZM89.8823 4.60974L89.1688 4.78245L89.4041 5.75438L90.1176 5.58167L89.8823 4.60974ZM90.9283 4.80598L90.1176 4.60974L89.8823 5.58167L90.693 5.77791L90.9283 4.80598ZM90.3107 0.0972443V5.29195H91.3107V0.0972443H90.3107ZM98.4319 6.69178L91.1562 -0.264162L90.4652 0.458651L97.7409 7.41459L98.4319 6.69178ZM180.118 26.396L98.2041 6.56722L97.9688 7.53915L179.882 27.3679L180.118 26.396ZM118.827 27.382H180V26.382H118.827V27.382ZM120.443 27.7351L119.172 26.5206L118.481 27.2434L119.752 28.4579L120.443 27.7351ZM119.174 29.6708L120.443 28.4579L119.752 27.7351L118.483 28.948L119.174 29.6708ZM180 28.8094H118.828V29.8094H180V28.8094ZM98.2061 49.6237L180.118 29.7954L179.883 28.8235L97.9709 48.6518L98.2061 49.6237ZM91.1562 56.4571L98.434 49.4992L97.743 48.7764L90.4652 55.7343L91.1562 56.4571ZM90.3107 50.8995V56.0957H91.3107V50.8995H90.3107ZM90.1179 51.5817L90.9283 51.3855L90.693 50.4136L89.8826 50.6097L90.1179 51.5817ZM89.1688 51.4089L89.8826 51.5817L90.1179 50.6097L89.4041 50.437L89.1688 51.4089ZM89.7865 56.0942V50.9229H88.7865V56.0942H89.7865ZM81.6981 49.5311L88.941 56.4556L89.632 55.7328L82.3891 48.8082L81.6981 49.5311ZM-0.117388 29.7954L81.926 49.6556L82.1613 48.6837L0.117886 28.8235L-0.117388 29.7954ZM61.2703 28.8094H0.000248909V29.8094H61.2703V28.8094ZM59.6545 28.4563L60.9248 29.6708L61.6159 28.948L60.3455 27.7335L59.6545 28.4563ZM60.9232 26.5206L59.6545 27.7335L60.3455 28.4563L61.6143 27.2434L60.9232 26.5206ZM0 27.382H61.2687V26.382H0V27.382ZM81.9239 6.53623L-0.117637 26.396L0.117637 27.3679L82.1592 7.50816L81.9239 6.53623ZM89.7865 29.3094V26.882H88.7865V29.3094H89.7865ZM90.8107 28.8094H89.2865V29.8094H90.8107V28.8094ZM90.3107 26.882V29.3094H91.3107V26.882H90.3107ZM89.2865 27.382H90.8107V26.382H89.2865V27.382Z" fill="white" mask="url(#path-1-inside-1_205_2239)"/>
<rect x="88.8" y="5.0957" width="2.5" height="46" fill="white"/>
</svg>
